<?xml version="1.0" encoding="utf-8" standalone="no"?><!-- Generator: Adobe Illustrator 21.1.0, SVG Export Plug-In . SVG Version: 6.00 Build 0)  --><svg xmlns="http://www.w3.org/2000/svg" xmlns:xlink="http://www.w3.org/1999/xlink" height="125px" id="Laag_1" style="enable-background:new 0 0 314 125;" version="1.1" viewBox="0 0 314 125" width="314px" x="0px" xml:space="preserve" y="0px">
<style type="text/css">
	.st0{fill:none;}
	.st1{fill:#154273;}
	.st2{fill:#FFFFFF;}
	.st3{fill:#1D1D1B;}
</style>
<g id="Laag_1_1_">
	<g>
		<rect class="st0" height="125" width="314"/>
		<rect class="st1" height="100" width="50"/>
	</g>
	<path class="st2" d="M25.9,77.36h-0.87v-2.41h0.87V77.36z M29.83,66.72h-0.87v-2.41h0.87V66.72z M13.71,62.56   c-0.07,0-0.52,0-0.52,0.09c0,0.09,0.21,0.05,0.52,0.1c0.7,0.12,0.97,0.47,1.46,0.47c0.44,0,0.9-0.3,0.72-0.94   c-0.03-0.11-0.09-0.08-0.11-0.01c-0.07,0.29-0.42,0.45-0.79,0.45C14.53,62.72,14.44,62.56,13.71,62.56z M8.92,64.97   c0.08,0.11,0.9,1.17-0.36,1.58c-0.06,0.02-0.07,0.07,0.01,0.11c0.93,0.39,1.38-0.33,1.38-0.33C10.42,67.41,9.7,68,9.7,68   c0.1,0.19,0.55,0.52,1.22,0.67c0.26-0.14,0.62-0.4,0.77-0.8c0,0,0.18,0.47,0.02,0.92c1.9,0.17,2.57-1.35,4.04-1.07   c0.04,0.01,0.06-0.02,0.06-0.06c0-0.94-0.57-2.65-2.39-3c-1.81-0.35-1.32-1.09-1.32-1.09c0.76-0.03,1.2,0.3,1.2,0.3   c0.14-0.23-0.06-0.47-0.06-0.47c0.07-0.09,0.11-0.4,0.11-0.4c-0.86,0-1.08-0.19-1.08-0.19c-0.13-0.51,0.22-1.23,1.5-0.46   c0.32-0.28,0.29-0.72,0.29-0.72c0.1-0.05,0.16-0.2,0.16-0.26c0-0.21-1.02-0.78-1.28-0.85c-0.06-0.31-0.46-0.75-1.66-0.59   c-0.57,0.07-0.98-0.08-0.79-0.41c0.03-0.06-0.07-0.07-0.12-0.01c-0.13,0.13-0.31,0.5,0.18,0.75c0.55,0.28,0.58,0.83,0.59,0.91   c0.01,0.12-0.13,0.13-0.16,0.01c-0.25-0.93-1.53-1.13-2.28-0.64c0.04,0.5,0.58,0.83,0.87,0.83c0.17,0,0.4-0.17,0.4-0.4   c0-0.11,0.06-0.1,0.09-0.01c0.12,0.33-0.37,1.02-1.09,0.6c-0.74,0.74-0.44,1.66-0.37,1.99c0.13,0.6-0.16,1.19-0.71,0.92   c-0.03-0.01-0.06-0.02-0.06,0.04C7.84,64.87,8.33,65.3,8.92,64.97z M13,61.24c-0.35,0.39-0.91,0.3-1.05-0.34   C12.67,60.86,12.97,60.93,13,61.24z M35.07,62.72c-0.37,0-0.72-0.16-0.79-0.45c-0.02-0.07-0.08-0.1-0.11,0.01   c-0.18,0.64,0.28,0.94,0.72,0.94c0.49,0,0.76-0.35,1.46-0.47c0.31-0.05,0.52,0,0.52-0.1c0-0.09-0.45-0.09-0.52-0.09   C35.63,62.56,35.53,62.72,35.07,62.72z M42.23,64.49c0-0.06-0.03-0.05-0.06-0.04c-0.55,0.27-0.84-0.31-0.71-0.92   c0.07-0.34,0.37-1.25-0.37-1.99c-0.73,0.42-1.22-0.27-1.09-0.6c0.03-0.09,0.09-0.1,0.09,0.01c0,0.23,0.23,0.4,0.4,0.4   c0.29,0,0.83-0.33,0.87-0.83c-0.75-0.49-2.03-0.29-2.28,0.64c-0.03,0.12-0.17,0.11-0.16-0.01c0-0.08,0.04-0.63,0.59-0.91   c0.5-0.25,0.32-0.62,0.18-0.75c-0.05-0.05-0.16-0.04-0.12,0.01c0.19,0.33-0.22,0.48-0.78,0.41c-1.2-0.16-1.59,0.29-1.66,0.59   c-0.26,0.07-1.28,0.64-1.28,0.85c0,0.06,0.06,0.22,0.16,0.26c0,0-0.02,0.43,0.29,0.72c1.27-0.77,1.63-0.05,1.5,0.46   c0,0-0.23,0.18-1.09,0.19c0,0,0.04,0.31,0.11,0.4c0,0-0.2,0.25-0.06,0.47c0,0,0.44-0.33,1.2-0.3c0,0,0.49,0.74-1.32,1.09   c-1.81,0.35-2.39,2.06-2.39,3c0,0.05,0.02,0.07,0.06,0.06c1.47-0.27,2.14,1.25,4.04,1.07c-0.17-0.45,0.02-0.92,0.02-0.92   c0.15,0.4,0.51,0.67,0.77,0.8c0.68-0.15,1.12-0.47,1.22-0.67c0,0-0.72-0.59-0.25-1.67c0,0,0.45,0.72,1.38,0.33   c0.08-0.04,0.06-0.09,0.01-0.11c-1.26-0.41-0.44-1.47-0.36-1.58C41.73,65.3,42.23,64.87,42.23,64.49z M38.11,60.9   c-0.14,0.64-0.7,0.73-1.05,0.34C37.09,60.93,37.4,60.86,38.11,60.9z M24.7,50.21c0,0.16,0.07,0.3,0.12,0.38   c0.11,0.16,0.09,0.25,0.04,0.3c-0.05,0.05-0.14,0.07-0.3-0.04c-0.08-0.06-0.22-0.12-0.38-0.12c-0.27,0-0.41,0.18-0.41,0.33   c0,0.15,0.14,0.33,0.41,0.33c0.16,0,0.3-0.07,0.38-0.12c0.16-0.11,0.25-0.09,0.3-0.04c0.05,0.05-0.02,0.6-0.09,1.04   c-0.45,0.1-0.67,0.46-0.67,0.67c0,0.55,0.58,0.86,0.93,1.05c0.34-0.18,0.93-0.5,0.93-1.05c0-0.21-0.22-0.58-0.67-0.67   c-0.06-0.43-0.14-0.99-0.09-1.04c0.05-0.05,0.14-0.07,0.3,0.04c0.08,0.06,0.22,0.12,0.38,0.12c0.27,0,0.41-0.18,0.41-0.33   c0-0.15-0.14-0.33-0.41-0.33c-0.16,0-0.3,0.07-0.38,0.12c-0.16,0.11-0.25,0.09-0.3,0.04c-0.05-0.05-0.07-0.14,0.04-0.3   c0.06-0.08,0.12-0.22,0.12-0.38c0-0.27-0.18-0.41-0.33-0.41C24.88,49.8,24.7,49.94,24.7,50.21z M25.03,54.27   c-0.37,0-0.67,0.3-0.67,0.67c0,0.37,0.3,0.67,0.67,0.67c0.37,0,0.67-0.3,0.67-0.67C25.7,54.57,25.4,54.27,25.03,54.27z    M25.03,60.68c2.67,0,4.17,0.51,4.17,0.51c0.01-1.35,0.01-2.1,0.78-1.99c-0.42-1.13,1.4-1.58,1.4-3.05c0-0.97-0.69-1.08-0.89-1.08   c-0.6,0-0.51,0.39-1.02,0.39c-0.06,0-0.13-0.02-0.13,0.03c0,0.17,0.14,0.46,0.38,0.46c0.32,0,0.32-0.32,0.56-0.32   c0.1,0,0.25,0.08,0.25,0.41c0,0.63-0.41,1.32-0.9,1.86c-0.11-0.15-0.26-0.25-0.45-0.25c-0.29,0-0.54,0.3-0.54,0.67   c0,0.14,0.02,0.24,0.07,0.35c-0.16,0.09-0.31,0.14-0.41,0.14c-0.22,0-0.55-0.09-0.55-0.57c0-1.07,1.43-2.01,1.43-3.37   c0-0.65-0.43-1.29-1.34-1.29c-0.97,0-0.79,0.88-1.63,0.88c-0.04,0-0.07,0.01-0.07,0.05c0,0.06,0.15,0.55,0.58,0.55   c0.46,0,0.59-0.8,1.01-0.8c0.15,0,0.38,0.09,0.38,0.63c0,0.42-0.21,1.11-0.51,1.76c-0.11-0.11-0.26-0.19-0.42-0.19   c-0.36,0-0.62,0.35-0.62,0.76c0,0.26,0.1,0.52,0.28,0.68c-0.21,0.27-0.43,0.49-0.72,0.49c-0.58,0-0.83-0.33-0.83-0.69   c0-0.39,0.71-0.53,0.71-1.13c0-0.41-0.27-0.64-0.52-0.64c-0.28,0-0.42,0.18-0.45,0.18c-0.03,0-0.17-0.18-0.45-0.18   c-0.26,0-0.52,0.23-0.52,0.64c0,0.6,0.71,0.75,0.71,1.13c0,0.36-0.26,0.69-0.83,0.69c-0.29,0-0.51-0.22-0.72-0.49   c0.18-0.17,0.28-0.42,0.28-0.68c0-0.42-0.26-0.76-0.62-0.76c-0.17,0-0.31,0.08-0.42,0.19c-0.3-0.66-0.51-1.34-0.51-1.76   c0-0.54,0.23-0.63,0.38-0.63c0.41,0,0.54,0.8,1.01,0.8c0.43,0,0.58-0.49,0.58-0.55c0-0.03-0.03-0.05-0.07-0.05   c-0.84,0-0.66-0.88-1.63-0.88c-0.9,0-1.34,0.64-1.34,1.29c0,1.36,1.43,2.3,1.43,3.37c0,0.48-0.33,0.57-0.55,0.57   c-0.11,0-0.25-0.05-0.41-0.14c0.05-0.12,0.07-0.21,0.07-0.35c0-0.37-0.25-0.67-0.54-0.67c-0.18,0-0.33,0.1-0.44,0.25   c-0.49-0.54-0.9-1.23-0.9-1.86c0-0.32,0.15-0.41,0.25-0.41c0.23,0,0.24,0.32,0.56,0.32c0.24,0,0.38-0.29,0.38-0.46   c0-0.05-0.07-0.03-0.13-0.03c-0.51,0-0.42-0.39-1.02-0.39c-0.2,0-0.89,0.11-0.89,1.08c0,1.48,1.82,1.92,1.4,3.05   c0.77-0.11,0.76,0.64,0.78,1.99C20.86,61.19,22.36,60.68,25.03,60.68z M20.14,62.67c-0.73,0.16-1.25,0.31-1.48,0.38   c0.01-0.32,0.13-0.62,0.42-0.68c0.04-0.01,0.05-0.06,0.01-0.08c-0.65-0.43-0.99,0.39-1,0.42c-0.23-0.02-0.58,0.05-0.58,0.36   c0,0.93-2.12,1.44-2.61,1.52c0.87,0.33,1.23,1.43,1.23,1.43c0.63-0.63,1.36-1.18,1.53-1.18c0.17,0,0.23,0.21,0.24,0.33   c0,0.04,0.04,0.05,0.07,0.02c0.33-0.49,0.17-0.6,0.14-0.75c-0.02-0.11,0.01-0.54,0.49-0.49v6.19l-0.25,0.05   c-0.11,0.02-1.02-0.75-2.05-1.47c-1.04-0.72-1.59-0.29-2.77,0.35c-1.55,0.84-3.11,0.08-3.11,0.08c-1.33,0.95-1.79,3.71-1.79,3.71   c-0.27,0.11-0.71,0.23-1.12,0.23c-1.02,0-1.2-0.62-1.2-0.98c0-1.57,1.97-2.24,1.97-3.79c0-0.38-0.17-1.9-2.06-1.9   c-0.24,0-1.68,0-1.69,0c-0.71,0-0.88-0.51-0.98-0.7c-0.04-0.08-0.11-0.03-0.08,0.03c0.05,0.13-0.08,0.33-0.08,0.72   c0,0.63,0.37,1.01,1.06,1.01c0.31,0,0.61-0.09,0.7-0.15c0.06-0.04,0.1,0.02,0.07,0.06c-0.3,0.35-0.32,1.01-0.2,1.16   c0.03,0.04,0.07,0.03,0.07,0c0.17-0.66,0.79-1.29,1.63-1.29c1.03,0,1.02,0.87,1.02,1.08c0,1.26-2.21,2.18-2.21,3.92   c0,1.76,1.86,2.13,2.93,1.86c-0.06,1.76-2.08,2.36-2.14,1.1c0-0.06-0.05-0.07-0.08,0.01c-0.25,0.62-0.15,1.17,0.63,1.34   c0.05,0.01,0.03,0.04-0.02,0.08c-0.78,0.49-0.36,2.43-0.32,3c0.06,0.82-0.76,0.72-0.83,0.7c-0.03-0.01-0.07,0-0.01,0.07   c0.58,0.71,1.3,0.06,1.3,0.06c0.54,0.17,0.21,0.63-0.16,0.87c-0.06,0.04-0.05,0.08,0.01,0.08c0.08,0.01,0.92,0.08,1.07-0.59   c0.37,0.44,0.92,0.28,1.03,0.22c0.16-0.08,0.95-0.37,1.02,0.51c0,0.06,0.04,0.02,0.07-0.01c0.59-0.75-0.04-1.21-0.4-1.26   c0.03-0.04,0.5-0.44,0.93,0.11c0.03,0.04,0.06,0.05,0.06-0.03c0.05-0.95-0.72-1.03-1.22-0.62c-0.02-0.1-0.19-0.63,0.56-0.61   c0.02,0,0.05-0.03,0.02-0.06c-0.58-0.62-1.06-0.06-1.18,0.08c-0.26,0.31-0.91,0.18-0.97,0.18c0.2-3.29,3.1-2.12,3.5-3.72   c0.02-0.08,0.06-0.05,0.06-0.02c0.11,0.39,1.09,0.44,1.27-0.32c0.01-0.05,0-0.08-0.03-0.05c-0.84,0.84-2.73-1.78-0.15-3.91   c2.2-1.81,4.17-0.8,4.92-0.21c0.04,0.26-0.12,0.35-0.22,0.38c-0.04,0.01-0.05,0.04,0.01,0.07c0.21,0.08,0.5,0.05,0.64-0.14   c0.47,0.33,0.07,0.75-0.12,0.86c-0.05,0.03-0.03,0.06,0.01,0.07c0.43,0.08,0.79-0.36,0.81-0.62l0.07,0.04v1.87   c0,2.66,3.07,3.03,6.44,5.28c3.37-2.26,6.43-2.62,6.43-5.28v-1.87l0.07-0.04c0.02,0.25,0.37,0.7,0.81,0.62   c0.04-0.01,0.06-0.04,0.01-0.07c-0.19-0.12-0.6-0.53-0.12-0.86c0.14,0.2,0.43,0.22,0.64,0.14c0.06-0.02,0.05-0.06,0.01-0.07   c-0.1-0.03-0.26-0.12-0.22-0.38c0.75-0.6,2.72-1.61,4.92,0.21c2.58,2.13,0.69,4.74-0.15,3.91c-0.04-0.04-0.04,0-0.03,0.05   c0.18,0.77,1.16,0.71,1.27,0.32c0.01-0.03,0.05-0.06,0.06,0.02c0.4,1.6,3.29,0.43,3.5,3.72c-0.06,0.01-0.71,0.13-0.97-0.18   c-0.11-0.13-0.59-0.7-1.18-0.08c-0.04,0.04,0,0.06,0.02,0.06c0.75-0.02,0.59,0.51,0.56,0.61c-0.5-0.41-1.27-0.33-1.22,0.62   c0,0.07,0.03,0.07,0.06,0.03c0.43-0.55,0.9-0.15,0.93-0.11c-0.35,0.05-0.99,0.51-0.4,1.26c0.03,0.03,0.06,0.07,0.07,0.01   c0.08-0.88,0.86-0.6,1.02-0.51c0.11,0.06,0.66,0.22,1.03-0.22c0.15,0.67,0.99,0.6,1.07,0.59c0.06,0,0.06-0.04,0.01-0.08   c-0.36-0.24-0.7-0.7-0.16-0.87c0,0,0.72,0.65,1.3-0.06c0.05-0.06,0.02-0.08-0.01-0.07c-0.07,0.02-0.89,0.12-0.83-0.7   c0.04-0.57,0.46-2.51-0.32-3c-0.05-0.03-0.07-0.06-0.02-0.08c0.78-0.17,0.88-0.72,0.63-1.34c-0.03-0.08-0.08-0.06-0.08-0.01   c-0.06,1.26-2.07,0.66-2.14-1.1c1.08,0.28,2.93-0.1,2.93-1.86c0-1.73-2.21-2.66-2.21-3.92c0-0.21-0.01-1.08,1.02-1.08   c0.84,0,1.46,0.63,1.63,1.29c0.01,0.03,0.04,0.04,0.07,0c0.12-0.16,0.1-0.81-0.2-1.16c-0.03-0.03,0-0.1,0.07-0.06   c0.09,0.06,0.39,0.15,0.7,0.15c0.69,0,1.06-0.38,1.06-1.01c0-0.39-0.14-0.59-0.08-0.72c0.03-0.06-0.05-0.1-0.08-0.03   c-0.1,0.2-0.28,0.7-0.98,0.7c-0.01,0-1.45,0-1.69,0c-1.89,0-2.06,1.53-2.06,1.9c0,1.55,1.97,2.22,1.97,3.79   c0,0.37-0.19,0.98-1.2,0.98c-0.42,0-0.86-0.12-1.12-0.23c0,0-0.45-2.75-1.79-3.71c0,0-1.56,0.76-3.11-0.08   c-1.18-0.64-1.74-1.07-2.78-0.35c-1.04,0.72-1.94,1.49-2.05,1.47l-0.25-0.05v-6.19c0.48-0.05,0.51,0.38,0.49,0.49   c-0.03,0.14-0.18,0.26,0.14,0.75c0.03,0.04,0.06,0.02,0.07-0.02c0.01-0.12,0.08-0.33,0.24-0.33c0.16,0,0.9,0.55,1.53,1.18   c0,0,0.36-1.09,1.23-1.43c-0.49-0.08-2.61-0.59-2.61-1.52c0-0.31-0.35-0.38-0.58-0.36c-0.01-0.03-0.36-0.85-1-0.42   c-0.03,0.02-0.03,0.07,0.01,0.08c0.29,0.07,0.41,0.36,0.42,0.68c-0.62-0.19-3.25-0.93-6.37-0.93c-1.52,0-2.91,0.18-4.02,0.38v2.14   h-0.87V62.67L20.14,62.67 M14.38,84.65C14.15,84.56,14,84.41,14,84.1v-1.33c-0.38-0.13-1.42-0.53-3.51-0.53   c-1.73,0-2.27,0.39-2.3,0.53L7.73,85.3c0,0,0.7-0.64,3.21-0.48c3.02,0.19,6.15,1.98,6.15,0.07v-1.12   C14.73,83.78,14.38,84.54,14.38,84.65z M32.97,83.78v1.12c0,1.9,3.13,0.12,6.15-0.07c2.51-0.16,3.21,0.48,3.21,0.48l-0.46-2.54   c-0.02-0.14-0.57-0.53-2.3-0.53c-2.08,0-3.12,0.4-3.51,0.53v1.33c0,0.3-0.15,0.45-0.38,0.55C35.69,84.54,35.34,83.78,32.97,83.78z    M25.03,82.63c4.87,0,9.81,0.25,10.45,0.99c0.05,0.06,0.07,0,0.07-0.05l0-2.58c0-0.75-5.1-1.19-10.53-1.19   c-5.43,0-10.53,0.44-10.53,1.19l0,2.58c0,0.04,0.02,0.1,0.07,0.05C15.23,82.89,20.17,82.63,25.03,82.63z M20.69,70.47l-0.49-0.13   l-0.04,0.06l-0.57-0.25c0,0,0.42,0,0.51,0c0.05,0,0.05-0.03,0.03-0.05c-0.23-0.23-0.44-0.43-0.44-0.43s0.23,0.09,0.56,0.21   c0.04,0.01,0.05-0.01,0.03-0.04c-0.16-0.23-0.38-0.55-0.38-0.55s0.46,0.31,0.55,0.37c0.03,0.02,0.05,0,0.04-0.03   c-0.12-0.3-0.26-0.65-0.26-0.65l0.5,0.48c0.02,0.02,0.05,0.01,0.04-0.02c-0.05-0.23-0.14-0.65-0.14-0.65l0.37,0.54   c0.02,0.03,0.05,0.02,0.05-0.01c0-0.11,0.01-0.59,0.01-0.59s0.16,0.36,0.23,0.54c0.02,0.04,0.04,0.04,0.06-0.01   c0.02-0.06,0.19-0.46,0.19-0.46l0.02,0.62l-0.08,0.02l-0.1,0.74c0.73-0.17,1.65-1.43,2.35-1.43c0.84,0,1.14,0.98,2.68,0.48   c0.39,0.58,0.53,1.08,0.68,1.77c0.6,0.56,1.43,0.37,1.43-0.22c0-0.8-0.87-0.95-0.87-1.79c0-0.37,0.26-0.91,0.97-0.91   c0.38,0,0.93,0.16,1.25,0.16c0.38,0,0.46-0.27,0.5-0.39c0.03-0.08,0.14-0.06,0.13,0.01c-0.01,0.08,0.04,0.19,0.04,0.37   c0,0.53-0.77,0.6-0.86,0.53c-0.04-0.03-0.07,0.01-0.04,0.04c0.12,0.09,0.09,0.41-0.05,0.61c-0.02,0.02-0.04,0.02-0.04,0   c-0.08-0.38-0.53-0.85-0.92-0.85c-0.14,0-0.43,0.08-0.43,0.42c0,0.47,0.95,0.91,0.95,1.89c0,1.02-1.01,1.27-2.03,1.01   c0.03,0.97,1.48,1.54,1.51,0.85c0-0.05,0.03-0.02,0.04,0c0.21,0.3,0.12,0.52-0.16,0.64c0.25,0.11,0.3,0.62,0.37,0.93   c0.11,0.46,0.59,0.2,0.62,0.19c0.03-0.02,0.04,0,0.02,0.03c-0.18,0.47-0.67,0.29-0.67,0.29c-0.25,0.18,0.05,0.34,0.28,0.41   c0.03,0.01,0.03,0.03,0.01,0.05c-0.17,0.06-0.53,0.18-0.71-0.13c-0.13,0.32-0.4,0.31-0.5,0.31c-0.19,0-0.31,0.19-0.27,0.45   c0,0.02-0.01,0.03-0.03,0.02c-0.44-0.29-0.19-0.64-0.01-0.73c-0.03-0.02-0.34-0.15-0.47,0.21c-0.01,0.03-0.03,0.03-0.04,0   c-0.19-0.52,0.23-0.67,0.53-0.54c-0.02-0.07-0.18-0.33-0.58-0.24c-0.02,0.01-0.03,0-0.02-0.03c0.07-0.16,0.26-0.39,0.63-0.16   c0.19,0.12,0.51-0.05,0.54-0.07c-0.65-1.29-1.9-0.21-2.19-1.22c-0.01-0.02-0.03-0.04-0.05,0.02c-0.07,0.21-0.62,0.23-0.72-0.19   c-0.01-0.03,0-0.04,0.03-0.02c0.08,0.08,0.25,0.15,0.48-0.17c0.15-0.22,0.17-0.51,0.17-0.7c0-0.78-0.78-2.1-2-2.1   c-0.77,0-1.6,0.3-2.22,0.75l0.57,0.13c-0.05,0.58-0.61,0.92-1.12,0.77l0.09-0.66c-0.09,0.03-0.31,0.11-0.43,0.28   c-0.01,0.01-0.03,0.01-0.03-0.01c-0.1-0.38,0.21-0.57,0.3-0.61c0.01-0.01,0.01-0.01-0.01-0.01c-0.28-0.01-0.43,0.19-0.48,0.26   c-0.01,0.01-0.02,0.01-0.02,0C20.61,70.8,20.56,70.61,20.69,70.47z M22.4,74.95c-0.22,0.27-0.41,0.01-0.7,0.01   c-0.27,0-0.32,0.23-0.32,0.32c0,0.02-0.01,0.02-0.02,0.01c-0.31-0.42,0.04-0.65,0.24-0.68c-0.03-0.03-0.33-0.23-0.52,0.05   c-0.01,0.02-0.03,0.01-0.03-0.01c-0.01-0.52,0.4-0.56,0.68-0.33c0.05-0.2-0.08-0.33-0.3-0.34c-0.03,0-0.03-0.02-0.02-0.03   c0.09-0.1,0.18-0.14,0.27-0.14c0.29,0,0.33,0.37,0.52,0.37c0.28,0,0.69-0.38,0.72-0.42c-0.01-0.02-0.28-0.76-0.23-1.2   c0-0.02-0.01-0.02-0.02-0.01c-0.14,0.08-0.48,0.07-0.48-0.35c0-0.03,0.01-0.04,0.03-0.01c0.15,0.21,0.4-0.03,0.52-0.17   c0.13-0.15,0.85-1.19,1.8-1.19c0.21,0,0.48,0.12,0.7,0.27c-0.33,0.4,0,0.78,0.24,0.73c0.03-0.01,0.03,0.02,0.01,0.03   c-1.26,0.47-1.82,0.66-1.82,1.72c0,0.55,0.19,0.86,0.51,0.78c0.02-0.01,0.03,0,0.01,0.02c-0.12,0.14-0.25,0.19-0.36,0.19   c-0.26,0-0.31-0.14-0.45-0.14c-0.14,0-0.61,0.28-0.61,0.51c0,0.09,0.06,0.21,0.22,0.31c0.01,0.01,0,0.02,0,0.02   C22.85,75.27,22.48,75.3,22.4,74.95z M25.71,64.7c-0.39-0.02-0.65,0.06-0.63,0.19C25.27,65.09,25.52,65.07,25.71,64.7z    M24.26,65.67c0.28-0.07,0.58-0.04,0.62-0.03c0.04,0.01,0.04,0.08-0.01,0.09c-0.58,0.07-0.61,0.34-0.98,0.34   c-0.24,0-0.51-0.25-0.41-0.61c0.01-0.05,0.05-0.05,0.06,0C23.58,65.62,23.81,65.79,24.26,65.67z M16.73,78.53   c0.38,0.49,0.75,0.03,1.26,0.03c0.25,0,0.55,0.08,0.6,0.58c0,0.03,0.02,0.03,0.05,0c0.55-0.75-0.08-1.17-0.44-1.23   c0.08-0.07,0.61-0.4,0.96,0.09c0.02,0.03,0.06,0.02,0.06-0.02c0-0.95-0.71-1.02-1.23-0.61c-0.1-0.37,0.18-0.61,0.54-0.61   c0.04,0,0.06-0.03,0.04-0.05c-0.64-0.68-1.11,0.18-1.22,0.31c-0.25,0.34-1.16-0.3-1.53-0.68c0,0,0.8-0.84,0.8-1.61   c0-0.05-0.01-0.11-0.01-0.14c0-0.02,0.01-0.03,0.03-0.02c0.08,0.05,0.19,0.08,0.3,0.08c0.18,0,0.53-0.06,0.53-0.71   c0-0.05-0.02-0.05-0.04-0.02c-0.1,0.14-0.2,0.17-0.28,0.17c-0.65,0-2-2.16-3.6-2.16c-0.42,0-1.21,0.3-1.6,0.73   c0.19,0.11,0.23,0.35,0.21,0.52c-0.03,0.27-0.25,0.41-0.47,0.47c-0.04,0.01-0.04,0.04,0,0.06c0.81,0.31,2.27,0.86,2.61,1.15   c0.39,0.34,0.32,0.98,0.09,1.87c-0.22,0.85-0.69,0.74-0.87,0.71c-0.03,0-0.03,0.01-0.02,0.03c0.21,0.26,0.46,0.35,0.68,0.35   c0.42,0,0.58-0.26,0.79-0.26c0.36,0,1.13,0.52,1.13,0.92c0,0.22-0.17,0.43-0.4,0.57c-0.01,0.01-0.01,0.03,0.01,0.03   C15.88,79.11,16.59,79.17,16.73,78.53z M34.36,79.08c0.02,0,0.03-0.02,0.01-0.03c-0.22-0.15-0.4-0.35-0.4-0.57   c0-0.4,0.76-0.92,1.13-0.92c0.22,0,0.37,0.26,0.79,0.26c0.22,0,0.47-0.09,0.68-0.35c0.02-0.02,0.01-0.04-0.02-0.03   c-0.17,0.03-0.65,0.14-0.87-0.71c-0.23-0.89-0.31-1.53,0.09-1.87c0.33-0.29,1.8-0.84,2.61-1.15c0.04-0.02,0.04-0.05,0-0.06   c-0.22-0.06-0.44-0.2-0.47-0.47c-0.02-0.17,0.02-0.4,0.21-0.52c-0.4-0.43-1.19-0.73-1.61-0.73c-1.6,0-2.95,2.16-3.6,2.16   c-0.08,0-0.19-0.03-0.28-0.17c-0.02-0.03-0.04-0.03-0.04,0.02c0,0.65,0.35,0.71,0.53,0.71c0.1,0,0.22-0.03,0.3-0.08   c0.02-0.01,0.03,0,0.03,0.02c0,0.03-0.01,0.09-0.01,0.14c0,0.77,0.8,1.61,0.8,1.61c-0.36,0.38-1.27,1.01-1.53,0.68   c-0.11-0.14-0.58-0.99-1.22-0.31c-0.02,0.03-0.01,0.05,0.04,0.05c0.36,0,0.64,0.24,0.54,0.61c-0.52-0.41-1.23-0.34-1.23,0.61   c0,0.04,0.04,0.05,0.06,0.02c0.34-0.49,0.88-0.16,0.95-0.09c-0.36,0.05-0.98,0.48-0.44,1.23c0.02,0.03,0.04,0.03,0.05,0   c0.06-0.49,0.36-0.58,0.6-0.58c0.5,0,0.87,0.46,1.26-0.03C33.48,79.17,34.19,79.11,34.36,79.08z M21.45,66.61   c-0.05,0.07-0.22,0-0.28-0.03c-0.01-0.01-0.02,0-0.01,0.01c0.04,0.09,0.2,0.36,0.44,0.36c0.11,0,0.27-0.06,0.31-0.14   c0,0,0.94,0.31,1.4,0.43c-0.18,0.24-0.29,0.53-0.32,0.84c-0.37-0.23-1.87-1.03-1.87-1.03l-0.46,0.64c-0.08,0.1-0.45-0.17-0.37-0.27   l0.35-0.49c-0.12-0.12-0.4-0.05-0.48-0.02c-0.01,0-0.02,0-0.01-0.02c0.05-0.1,0.22-0.39,0.66-0.26c0-0.27-0.4-0.18-0.51-0.15   c-0.01,0-0.02,0-0.01-0.01c0.11-0.12,0.44-0.38,0.8-0.16l0.16-0.22l-0.32-0.34l0.2-0.28l0.23,0.3l1.73-2.37   c0.04-0.06,0.39-0.16,0.51-0.19c0.01,0.13,0.03,0.49-0.01,0.55l-1.7,2.39l0.36,0.12l-0.2,0.28l-0.42-0.2L21.45,66.61z M27.52,66.22   c0,0.22,0.13,0.54,0.42,0.44c0.01-0.01,0.03,0,0.02,0.01c-0.04,0.24-0.48,0.46-0.67,0.18c-0.18,0.37-0.13,0.72,0.24,0.92   c0.02,0.01,0.02,0.04,0,0.06c-0.23,0.16-0.58,0.13-0.74-0.19c-0.31,0.23-0.27,0.73-0.08,0.9c0,0-0.86,0.51-1.64,0.15   c-0.52-0.25-0.94-0.57-1.61-0.51c0.09-0.94,0.56-1.18,1.42-1.32c0.69-0.11,0.77-0.43,0.68-0.67c-0.23-0.06-0.66,0.15-0.66,0.15   c-0.08-0.13,0.03-0.26,0.03-0.26c-0.04-0.05-0.06-0.22-0.06-0.22c0.48,0,0.57-0.11,0.57-0.11c0.09-0.5-0.42-0.55-0.81-0.28   c-0.18-0.16-0.15-0.37-0.15-0.37c-0.05-0.03-0.09-0.11-0.09-0.15c0-0.12,0.57-0.44,0.72-0.48c0.04-0.17,0.24-0.4,0.85-0.34   c0.07-0.16-0.05-0.75-0.12-0.9c-0.02-0.05,0.01-0.07,0.06-0.04c0.21,0.13,0.42,0.63,0.57,0.64c0,0,0.68-0.36,0.71-0.34   c0.03,0.02,0.13,0.78,0.13,0.78c0.09,0.11,0.62,0,0.85,0.1c0.06,0.03,0.06,0.07,0,0.08c-0.17,0.03-0.72,0.27-0.81,0.42   C27.67,65.34,27.52,66.03,27.52,66.22z"/>
</g>
<g id="Isolatiemodus">
	<g>
		<path d="M62.56,55.64l-0.99-0.25v-0.34c0.59-0.16,1.18-0.25,1.77-0.25c0.53,0,0.95,0.03,1.47,0.14v0.31    c-0.67,0.17-0.91,0.45-0.91,1.22v5.18c0,1.43,0.88,2.33,2.28,2.33c1.35,0,2.29-0.85,2.29-2.73v-5.61l-0.99-0.25v-0.34    c0.59-0.17,1.12-0.26,1.66-0.26c0.5,0,0.87,0.06,1.32,0.17v0.29c-0.68,0.23-0.9,0.51-0.9,1.16v4.65c0,2.62-1.5,3.91-3.55,3.91    c-2.25,0-3.44-1.12-3.44-3.05V55.64z"/>
		<path d="M71.49,64.5c0.42-0.15,0.82-0.46,0.82-0.84v-5.24L71.32,58v-0.33c0.7-0.2,1.41-0.29,1.84-0.29h0.5l-0.08,0.84v5.89    l0.87,0.23v0.29c-0.53,0.19-1.01,0.26-1.8,0.26c-0.36,0-0.81-0.03-1.16-0.14V64.5z M72.14,55.07c0-0.48,0.34-0.91,0.88-0.91    c0.43,0,0.81,0.33,0.81,0.84c0,0.54-0.37,0.96-0.87,0.96C72.49,55.95,72.14,55.58,72.14,55.07z"/>
		<path d="M76.15,60.53l0.05-2.06h-0.85v-0.51l1.67-1.66l0.51-0.06l-0.06,1.4h2.05l-0.11,0.84h-1.98l-0.03,1.95    c-0.02,0.65-0.02,1.24-0.02,1.81c0,1.26,0.37,1.69,0.95,1.69c0.45,0,0.84-0.16,1.15-0.4l0.16,0.06c-0.06,0.91-0.6,1.38-1.67,1.38    c-1.24,0-1.84-0.65-1.84-2.16C76.1,62.06,76.14,61.24,76.15,60.53z"/>
		<path d="M80.29,58.2l-0.63-0.45v-0.37h2.96v0.37l-0.88,0.37l1.67,4.91h0.02l1.72-4.87l-0.88-0.42v-0.37h2.39v0.37l-0.43,0.36    l-2.76,6.84l-0.53,0.03L80.29,58.2z"/>
		<path d="M90.74,57.26c1.91,0,3.38,1.43,3.38,3.58c0,2.56-1.78,4.17-3.63,4.17c-1.88,0-3.4-1.32-3.4-3.58    C87.09,58.88,88.83,57.26,90.74,57.26z M90.58,64.11c1.04,0,2.12-1.01,2.12-3.13c0-1.81-0.98-2.82-2.08-2.82    c-1.07,0-2.12,1.07-2.12,3.12C88.5,63.15,89.48,64.11,90.58,64.11z"/>
		<path d="M98.66,57.27c1.67,0,2.68,1.12,2.68,2.9c0,0.29,0,0.6-0.02,0.99h-4.57c0,1.74,1.01,2.74,2.29,2.74    c0.76,0,1.6-0.26,2.19-0.67c0.03,0.08,0.06,0.25,0.06,0.4c0,0.7-1.02,1.35-2.67,1.35c-1.77,0-3.21-1.38-3.21-3.55    C95.42,58.74,97.04,57.27,98.66,57.27z M100.1,60.36c0-1.52-0.65-2.25-1.57-2.25c-0.85,0-1.75,1.02-1.75,2.25H100.1z"/>
		<path d="M102.67,64.5c0.4-0.15,0.82-0.46,0.82-0.84v-5.24L102.49,58v-0.34c0.71-0.2,1.41-0.28,1.86-0.28h0.37v1.08h0.01l0.43-0.48    c0.42-0.45,0.84-0.68,1.36-0.68c0.54,0,0.81,0.23,0.81,0.67c0,0.29-0.09,0.64-0.25,0.93c-0.29-0.23-0.64-0.36-0.96-0.36    c-0.48,0-0.93,0.22-1.36,0.64v4.93l1.07,0.23v0.29c-0.53,0.19-1.04,0.26-1.92,0.26c-0.45,0-0.88-0.03-1.24-0.14V64.5z"/>
		<path d="M107.97,64.5c0.42-0.15,0.82-0.46,0.82-0.84v-5.24L107.8,58v-0.33c0.7-0.2,1.41-0.29,1.85-0.29h0.5l-0.08,0.84v5.89    l0.87,0.23v0.29c-0.53,0.19-1.01,0.26-1.8,0.26c-0.36,0-0.81-0.03-1.16-0.14V64.5z M108.62,55.07c0-0.48,0.34-0.91,0.88-0.91    c0.43,0,0.81,0.33,0.81,0.84c0,0.54-0.37,0.96-0.87,0.96C108.98,55.95,108.62,55.58,108.62,55.07z"/>
		<path d="M112.28,64.5c0.4-0.15,0.82-0.46,0.82-0.84v-5.24L112.09,58v-0.34c0.71-0.2,1.41-0.28,1.86-0.28h0.37v0.84    c0.53-0.53,1.39-0.87,2.29-0.87c1.29,0,2.17,0.82,2.17,2.42v4.34l0.81,0.23v0.29c-0.42,0.17-0.96,0.26-1.63,0.26    c-0.33,0-0.7-0.03-1.01-0.14V64.5c0.39-0.17,0.56-0.46,0.56-1.02v-2.96c0-1.52-0.64-2.09-1.55-2.09c-0.64,0-1.25,0.22-1.6,0.48    v5.21l0.87,0.23v0.29c-0.53,0.19-1.02,0.26-1.8,0.26c-0.37,0-0.81-0.03-1.16-0.14V64.5z"/>
		<path d="M122.22,62.5v-0.02c-0.7-0.28-1.4-1.09-1.4-2.16c0-1.74,1.4-3.07,3.08-3.07c0.64,0,1.41,0.26,1.67,0.51    c0.28-0.26,0.87-0.5,1.36-0.5c0.26,0,0.51,0.05,0.67,0.09l-0.11,1.02c-0.5-0.11-1.05-0.17-1.66-0.17v0.02    c0.51,0.39,0.88,1.05,0.88,1.69c0,1.8-1.47,3.02-3.15,3.02c-0.34,0-0.7-0.08-0.96-0.19c-0.23,0.14-0.5,0.47-0.5,0.74    c0,0.47,0.39,0.71,0.99,0.71l2.17-0.02c1.3-0.02,2.03,0.59,2.03,1.74c0,1.47-1.63,2.71-3.78,2.71c-1.95,0-2.96-0.79-2.96-1.81    c0-0.82,0.64-1.49,1.47-1.72V65.1c-0.57-0.2-0.92-0.62-0.92-1.21C121.13,63.3,121.63,62.7,122.22,62.5z M123.74,67.75    c1.47,0,2.45-0.73,2.45-1.47c0-0.6-0.4-0.95-1.15-0.95h-2.5c-0.45,0.2-0.79,0.71-0.79,1.24    C121.75,67.21,122.43,67.75,123.74,67.75z M125.36,59.97c0-1.3-0.73-1.92-1.55-1.92c-0.88,0-1.63,0.84-1.63,2.19    c0,1.3,0.73,1.94,1.49,1.94C124.62,62.17,125.36,61.49,125.36,59.97z"/>
		<path d="M128.25,63.08c0.7,0.65,1.36,0.98,2.19,0.98c0.87,0,1.32-0.42,1.32-0.96c0-0.54-0.31-0.88-1.33-1.32l-0.77-0.33    c-0.9-0.39-1.4-1.04-1.4-1.92c0-1.22,1.08-2.28,2.7-2.28c1.24,0,1.74,0.37,1.74,0.96c0,0.23-0.03,0.43-0.08,0.65    c-0.5-0.34-1.18-0.59-1.77-0.59c-0.99,0-1.46,0.43-1.46,0.96c0,0.56,0.28,0.87,1.21,1.22l0.84,0.33c1.12,0.43,1.54,1.01,1.54,1.92    c0,1.19-1.15,2.28-2.88,2.28c-1.36,0-1.97-0.43-1.97-1.27C128.11,63.5,128.15,63.25,128.25,63.08z"/>
		<path d="M137.7,57.26c1.91,0,3.38,1.43,3.38,3.58c0,2.56-1.78,4.17-3.63,4.17c-1.88,0-3.4-1.32-3.4-3.58    C134.06,58.88,135.79,57.26,137.7,57.26z M137.55,64.11c1.04,0,2.12-1.01,2.12-3.13c0-1.81-0.98-2.82-2.08-2.82    c-1.07,0-2.12,1.07-2.12,3.12C135.47,63.15,136.45,64.11,137.55,64.11z"/>
		<path d="M142.52,64.5c0.4-0.15,0.82-0.46,0.82-0.84v-5.24L142.33,58v-0.34c0.71-0.2,1.41-0.28,1.86-0.28h0.37v1.08h0.01l0.43-0.48    c0.42-0.45,0.84-0.68,1.36-0.68c0.54,0,0.81,0.23,0.81,0.67c0,0.29-0.09,0.64-0.25,0.93c-0.29-0.23-0.64-0.36-0.96-0.36    c-0.48,0-0.93,0.22-1.36,0.64v4.93l1.07,0.23v0.29c-0.53,0.19-1.04,0.26-1.92,0.26c-0.45,0-0.88-0.03-1.24-0.14V64.5z"/>
		<path d="M149.14,62.5v-0.02c-0.7-0.28-1.39-1.09-1.39-2.16c0-1.74,1.39-3.07,3.08-3.07c0.64,0,1.41,0.26,1.67,0.51    c0.28-0.26,0.87-0.5,1.36-0.5c0.26,0,0.51,0.05,0.67,0.09l-0.11,1.02c-0.5-0.11-1.05-0.17-1.66-0.17v0.02    c0.51,0.39,0.88,1.05,0.88,1.69c0,1.8-1.47,3.02-3.15,3.02c-0.34,0-0.7-0.08-0.96-0.19c-0.23,0.14-0.5,0.47-0.5,0.74    c0,0.47,0.39,0.71,0.99,0.71l2.17-0.02c1.3-0.02,2.03,0.59,2.03,1.74c0,1.47-1.63,2.71-3.78,2.71c-1.95,0-2.96-0.79-2.96-1.81    c0-0.82,0.64-1.49,1.47-1.72V65.1c-0.57-0.2-0.92-0.62-0.92-1.21C148.05,63.3,148.55,62.7,149.14,62.5z M150.66,67.75    c1.47,0,2.45-0.73,2.45-1.47c0-0.6-0.4-0.95-1.15-0.95h-2.5c-0.45,0.2-0.79,0.71-0.79,1.24    C148.67,67.21,149.36,67.75,150.66,67.75z M152.29,59.97c0-1.3-0.73-1.92-1.55-1.92c-0.88,0-1.63,0.84-1.63,2.19    c0,1.3,0.73,1.94,1.49,1.94C151.54,62.17,152.29,61.49,152.29,59.97z"/>
		<path d="M159.08,60.74v-0.42c0-1.67-0.4-2.03-1.38-2.03c-0.85,0-1.67,0.36-2.33,1.01c-0.03-0.15-0.05-0.29-0.05-0.47    c0-0.99,0.73-1.57,2.54-1.57c1.57,0,2.5,0.79,2.5,2.08c0,0.34-0.05,1.12-0.06,1.57l-0.05,2.51c0.11,0.28,0.34,0.57,0.62,0.79    c-0.23,0.28-0.65,0.59-1.05,0.79c-0.29-0.19-0.53-0.43-0.71-0.76c-0.43,0.42-1.27,0.74-2.09,0.74c-1.16,0-1.97-0.73-1.97-1.72    C155.04,61.91,156.53,60.74,159.08,60.74z M157.59,64.06c0.48,0,1.1-0.19,1.49-0.42v-2.17c-1.75,0-2.7,0.73-2.7,1.57    C156.38,63.66,156.8,64.06,157.59,64.06z"/>
		<path d="M162.3,64.5c0.4-0.15,0.82-0.46,0.82-0.84v-5.24L162.11,58v-0.34c0.71-0.2,1.41-0.28,1.86-0.28h0.37v0.84    c0.53-0.53,1.39-0.87,2.29-0.87c1.29,0,2.17,0.82,2.17,2.42v4.34l0.81,0.23v0.29c-0.42,0.17-0.96,0.26-1.63,0.26    c-0.33,0-0.7-0.03-1.01-0.14V64.5c0.39-0.17,0.56-0.46,0.56-1.02v-2.96c0-1.52-0.64-2.09-1.55-2.09c-0.63,0-1.26,0.22-1.6,0.48    v5.21l0.87,0.23v0.29c-0.53,0.19-1.02,0.26-1.8,0.26c-0.37,0-0.81-0.03-1.16-0.14V64.5z"/>
		<path d="M170.92,64.5c0.42-0.15,0.82-0.46,0.82-0.84v-5.24L170.75,58v-0.33c0.7-0.2,1.41-0.29,1.85-0.29h0.5l-0.08,0.84v5.89    l0.87,0.23v0.29c-0.53,0.19-1.01,0.26-1.8,0.26c-0.36,0-0.81-0.03-1.16-0.14V64.5z M171.57,55.07c0-0.48,0.34-0.91,0.88-0.91    c0.43,0,0.81,0.33,0.81,0.84c0,0.54-0.37,0.96-0.87,0.96C171.92,55.95,171.57,55.58,171.57,55.07z"/>
		<path d="M175.13,63.08c0.7,0.65,1.36,0.98,2.19,0.98c0.87,0,1.32-0.42,1.32-0.96c0-0.54-0.31-0.88-1.33-1.32l-0.77-0.33    c-0.9-0.39-1.4-1.04-1.4-1.92c0-1.22,1.08-2.28,2.7-2.28c1.24,0,1.74,0.37,1.74,0.96c0,0.23-0.03,0.43-0.08,0.65    c-0.5-0.34-1.18-0.59-1.77-0.59c-0.99,0-1.46,0.43-1.46,0.96c0,0.56,0.28,0.87,1.21,1.22l0.84,0.33c1.12,0.43,1.54,1.01,1.54,1.92    c0,1.19-1.15,2.28-2.88,2.28c-1.36,0-1.97-0.43-1.97-1.27C174.99,63.5,175.04,63.25,175.13,63.08z"/>
		<path d="M184.87,60.74v-0.42c0-1.67-0.4-2.03-1.38-2.03c-0.85,0-1.67,0.36-2.33,1.01c-0.03-0.15-0.05-0.29-0.05-0.47    c0-0.99,0.73-1.57,2.54-1.57c1.57,0,2.5,0.79,2.5,2.08c0,0.34-0.05,1.12-0.06,1.57l-0.05,2.51c0.11,0.28,0.34,0.57,0.62,0.79    c-0.23,0.28-0.65,0.59-1.05,0.79c-0.29-0.19-0.53-0.43-0.71-0.76c-0.43,0.42-1.27,0.74-2.09,0.74c-1.16,0-1.97-0.73-1.97-1.72    C180.84,61.91,182.33,60.74,184.87,60.74z M183.38,64.06c0.48,0,1.1-0.19,1.49-0.42v-2.17c-1.75,0-2.7,0.73-2.7,1.57    C182.17,63.66,182.59,64.06,183.38,64.06z"/>
		<path d="M188.76,60.53l0.05-2.06h-0.85v-0.51l1.67-1.66l0.51-0.06l-0.06,1.4h2.05l-0.11,0.84h-1.98L190,60.42    c-0.02,0.65-0.02,1.24-0.02,1.81c0,1.26,0.37,1.69,0.95,1.69c0.45,0,0.84-0.16,1.15-0.4l0.16,0.06c-0.06,0.91-0.6,1.38-1.67,1.38    c-1.24,0-1.84-0.65-1.84-2.16C188.71,62.06,188.74,61.24,188.76,60.53z"/>
		<path d="M192.99,64.5c0.42-0.15,0.82-0.46,0.82-0.84v-5.24L192.82,58v-0.33c0.7-0.2,1.41-0.29,1.84-0.29h0.5l-0.08,0.84v5.89    l0.87,0.23v0.29c-0.53,0.19-1.01,0.26-1.8,0.26c-0.36,0-0.81-0.03-1.16-0.14V64.5z M193.64,55.07c0-0.48,0.34-0.91,0.88-0.91    c0.43,0,0.81,0.33,0.81,0.84c0,0.54-0.37,0.96-0.87,0.96C194,55.95,193.64,55.58,193.64,55.07z"/>
		<path d="M200.4,57.27c1.67,0,2.68,1.12,2.68,2.9c0,0.29,0,0.6-0.02,0.99h-4.57c0,1.74,1.01,2.74,2.29,2.74    c0.76,0,1.6-0.26,2.19-0.67c0.03,0.08,0.06,0.25,0.06,0.4c0,0.7-1.02,1.35-2.67,1.35c-1.77,0-3.21-1.38-3.21-3.55    C197.16,58.74,198.79,57.27,200.4,57.27z M201.84,60.36c0-1.52-0.65-2.25-1.57-2.25c-0.85,0-1.75,1.02-1.75,2.25H201.84z"/>
		<path d="M61.88,82.06c0.53-0.12,0.9-0.45,0.9-1.15v-7.63l-0.98-0.33v-0.34c0.98-0.19,1.63-0.22,3.1-0.22    c2.25,0,3.33,0.82,3.33,2.29c0,1.18-1.05,2.26-2.26,2.5v0.01c1.63,0,2.7,0.9,2.7,2.34c0,1.69-1.58,3.01-3.98,3.01    c-1.1,0-1.97-0.03-2.81-0.2V82.06z M66.82,74.84c0-0.99-0.68-1.6-2.03-1.6c-0.22,0-0.43,0.02-0.7,0.05v3.69    C65.78,76.98,66.82,76.19,66.82,74.84z M64.91,81.71c1.26,0,2.28-0.84,2.28-2.02c0-1.3-0.9-1.97-2.6-1.97h-0.5v3.92    C64.4,81.69,64.62,81.71,64.91,81.71z"/>
		<path d="M73.33,74.87c1.67,0,2.68,1.12,2.68,2.9c0,0.29,0,0.6-0.02,0.99h-4.57c0,1.74,1.01,2.74,2.29,2.74    c0.76,0,1.6-0.26,2.19-0.67c0.03,0.08,0.06,0.25,0.06,0.4c0,0.7-1.02,1.35-2.67,1.35c-1.77,0-3.21-1.38-3.21-3.55    C70.09,76.34,71.72,74.87,73.33,74.87z M74.77,77.96c0-1.52-0.65-2.25-1.57-2.25c-0.85,0-1.75,1.02-1.75,2.25H74.77z"/>
		<path d="M80.91,74.89c0.37,0,0.82,0.05,1.07,0.11v-2.73l-1.05-0.42v-0.34c0.71-0.2,1.47-0.28,1.92-0.28h0.5l-0.09,0.87v8.88    c0.11,0.31,0.29,0.64,0.59,0.9c-0.31,0.28-0.65,0.5-1.08,0.73c-0.31-0.25-0.59-0.6-0.74-0.93c-0.5,0.51-1.35,0.88-1.98,0.88    c-1.57,0-2.82-1.3-2.82-3.36C77.21,76.41,78.9,74.89,80.91,74.89z M82,81.06v-5.13c-0.26-0.09-0.71-0.17-1.13-0.17    c-1.32,0-2.31,1.04-2.31,3.19c0,1.69,0.88,2.61,1.86,2.61C81,81.55,81.64,81.35,82,81.06z"/>
		<path d="M85.34,82.1c0.4-0.16,0.82-0.46,0.82-0.84v-5.24l-1.01-0.42v-0.34c0.71-0.2,1.41-0.28,1.86-0.28h0.37v1.09h0.01l0.43-0.48    c0.42-0.45,0.84-0.68,1.36-0.68c0.54,0,0.81,0.23,0.81,0.67c0,0.29-0.09,0.64-0.25,0.93c-0.29-0.23-0.64-0.36-0.96-0.36    c-0.48,0-0.93,0.22-1.36,0.64v4.93l1.07,0.23v0.29c-0.53,0.19-1.04,0.26-1.92,0.26c-0.45,0-0.88-0.03-1.24-0.14V82.1z"/>
		<path d="M90.64,82.1c0.42-0.16,0.82-0.46,0.82-0.84v-5.24l-0.99-0.42v-0.33c0.7-0.2,1.41-0.29,1.85-0.29h0.5l-0.08,0.84v5.89    l0.87,0.23v0.29c-0.53,0.19-1.01,0.26-1.8,0.26c-0.36,0-0.81-0.03-1.16-0.14V82.1z M91.29,72.67c0-0.48,0.34-0.92,0.88-0.92    c0.43,0,0.81,0.33,0.81,0.84c0,0.54-0.37,0.96-0.87,0.96C91.65,73.55,91.29,73.18,91.29,72.67z"/>
		<path d="M95.71,76.02l-0.99-0.42v-0.33c0.71-0.2,1.41-0.29,1.86-0.29h0.5l-0.09,0.87v6.96c0,2.54-0.76,3.33-1.75,3.33    c-0.34,0-0.68-0.12-0.87-0.37v-0.25c0.68,0,1.35-0.78,1.35-2.36V76.02z M95.54,72.67c0-0.48,0.34-0.92,0.88-0.92    c0.43,0,0.81,0.33,0.81,0.84c0,0.54-0.37,0.96-0.87,0.96C95.9,73.55,95.54,73.18,95.54,72.67z"/>
		<path d="M99.03,82.1c0.4-0.16,0.82-0.46,0.82-0.84v-5.18H99v-0.54l0.85-0.34v-1.15c-0.02-1.64,1.07-2.82,2.98-2.82    c1.1,0,1.53,0.29,1.53,0.74c0,0.14-0.03,0.36-0.08,0.51c-0.57-0.2-1.44-0.33-2.06-0.33c-0.64,0-1.15,0.59-1.15,1.69    c0,0.23,0.03,1.05,0.06,1.39h1.98l-0.17,0.84h-1.83v5.63l0.98,0.23v0.29c-0.53,0.19-1.05,0.26-1.91,0.26    c-0.37,0-0.81-0.03-1.16-0.14V82.1z"/>
		<path d="M103.68,80.68c0.7,0.65,1.36,0.98,2.19,0.98c0.87,0,1.32-0.42,1.32-0.96c0-0.54-0.31-0.88-1.33-1.32l-0.77-0.33    c-0.9-0.39-1.4-1.04-1.4-1.92c0-1.22,1.08-2.28,2.7-2.28c1.24,0,1.74,0.37,1.74,0.96c0,0.23-0.03,0.43-0.08,0.65    c-0.5-0.34-1.18-0.59-1.77-0.59c-0.99,0-1.46,0.43-1.46,0.96c0,0.56,0.28,0.87,1.21,1.22l0.84,0.33c1.12,0.43,1.54,1.01,1.54,1.92    c0,1.19-1.15,2.28-2.88,2.28c-1.36,0-1.97-0.43-1.97-1.27C103.54,81.1,103.59,80.86,103.68,80.68z"/>
		<path d="M109.2,75.8l-0.64-0.45v-0.37h2.96v0.37l-0.88,0.37l1.67,4.92h0.02l1.72-4.87l-0.88-0.42v-0.37h2.39v0.37l-0.43,0.36    l-2.76,6.84l-0.53,0.03L109.2,75.8z"/>
		<path d="M119.64,74.86c1.91,0,3.38,1.43,3.38,3.58c0,2.56-1.78,4.17-3.63,4.17c-1.88,0-3.4-1.32-3.4-3.58    C116,76.48,117.74,74.86,119.64,74.86z M119.49,81.71c1.04,0,2.12-1.01,2.12-3.13c0-1.81-0.98-2.82-2.08-2.82    c-1.07,0-2.12,1.07-2.12,3.12C117.41,80.75,118.39,81.71,119.49,81.71z"/>
		<path d="M127.56,74.87c1.67,0,2.68,1.12,2.68,2.9c0,0.29,0,0.6-0.01,0.99h-4.57c0,1.74,1.01,2.74,2.29,2.74    c0.76,0,1.6-0.26,2.19-0.67c0.03,0.08,0.06,0.25,0.06,0.4c0,0.7-1.02,1.35-2.67,1.35c-1.77,0-3.21-1.38-3.21-3.55    C124.32,76.34,125.95,74.87,127.56,74.87z M129.01,77.96c0-1.52-0.65-2.25-1.57-2.25c-0.85,0-1.75,1.02-1.75,2.25H129.01z"/>
		<path d="M131.58,82.1c0.4-0.16,0.82-0.46,0.82-0.84v-5.24l-1.01-0.42v-0.34c0.71-0.2,1.41-0.28,1.86-0.28h0.37v1.09h0.02    l0.43-0.48c0.42-0.45,0.84-0.68,1.36-0.68c0.54,0,0.81,0.23,0.81,0.67c0,0.29-0.09,0.64-0.25,0.93c-0.29-0.23-0.63-0.36-0.96-0.36    c-0.48,0-0.93,0.22-1.36,0.64v4.93l1.07,0.23v0.29c-0.53,0.19-1.04,0.26-1.92,0.26c-0.45,0-0.88-0.03-1.24-0.14V82.1z"/>
		<path d="M136.88,82.1c0.42-0.16,0.82-0.46,0.82-0.84v-5.24l-0.99-0.42v-0.33c0.7-0.2,1.41-0.29,1.84-0.29h0.5l-0.08,0.84v5.89    l0.87,0.23v0.29c-0.53,0.19-1.01,0.26-1.8,0.26c-0.36,0-0.81-0.03-1.16-0.14V82.1z M137.53,72.67c0-0.48,0.34-0.92,0.88-0.92    c0.43,0,0.81,0.33,0.81,0.84c0,0.54-0.37,0.96-0.87,0.96C137.89,73.55,137.53,73.18,137.53,72.67z"/>
		<path d="M141.19,82.1c0.4-0.16,0.82-0.46,0.82-0.84v-5.24L141,75.6v-0.34c0.71-0.2,1.41-0.28,1.86-0.28h0.37v0.84    c0.53-0.53,1.39-0.87,2.29-0.87c1.29,0,2.17,0.82,2.17,2.42v4.34l0.81,0.23v0.29c-0.42,0.17-0.96,0.26-1.63,0.26    c-0.33,0-0.7-0.03-1.01-0.14V82.1c0.39-0.17,0.56-0.46,0.56-1.02v-2.96c0-1.52-0.64-2.09-1.55-2.09c-0.63,0-1.26,0.22-1.6,0.48    v5.21l0.87,0.23v0.29c-0.53,0.19-1.02,0.26-1.8,0.26c-0.37,0-0.81-0.03-1.16-0.14V82.1z"/>
		<path d="M151.12,80.1v-0.02c-0.7-0.28-1.39-1.08-1.39-2.15c0-1.74,1.39-3.07,3.08-3.07c0.64,0,1.41,0.26,1.67,0.51    c0.28-0.26,0.87-0.5,1.36-0.5c0.26,0,0.51,0.05,0.67,0.09l-0.11,1.02c-0.5-0.11-1.05-0.17-1.66-0.17v0.02    c0.51,0.39,0.88,1.05,0.88,1.69c0,1.8-1.47,3.02-3.15,3.02c-0.34,0-0.7-0.08-0.96-0.19c-0.23,0.14-0.5,0.46-0.5,0.74    c0,0.46,0.39,0.71,0.99,0.71l2.17-0.01c1.3-0.02,2.03,0.59,2.03,1.74c0,1.47-1.63,2.71-3.78,2.71c-1.95,0-2.96-0.79-2.96-1.81    c0-0.82,0.64-1.49,1.47-1.72V82.7c-0.57-0.2-0.92-0.62-0.92-1.21S150.53,80.3,151.12,80.1z M152.64,85.35    c1.47,0,2.45-0.73,2.45-1.47c0-0.6-0.4-0.95-1.15-0.95h-2.5c-0.45,0.2-0.79,0.71-0.79,1.24    C150.66,84.81,151.34,85.35,152.64,85.35z M154.27,77.57c0-1.3-0.73-1.92-1.55-1.92c-0.88,0-1.63,0.84-1.63,2.19    c0,1.3,0.73,1.94,1.49,1.94C153.53,79.77,154.27,79.09,154.27,77.57z"/>
		<path d="M160.39,82.06c0.6-0.17,0.9-0.48,0.9-1.18v-7.61l-0.98-0.31v-0.34c0.98-0.17,1.86-0.23,3.08-0.23    c2.34,0,3.46,0.92,3.46,2.62c0,1.54-0.85,2.54-2.23,2.96l2.19,2.93c0.37,0.5,0.88,0.87,1.44,1.05v0.29    c-0.29,0.2-0.68,0.34-1.18,0.34c-0.67,0-1.1-0.26-1.66-1.1l-2.05-3.1h-0.73v3.27l0.98,0.25v0.34c-0.51,0.16-1.08,0.26-1.77,0.26    c-0.54,0-1.01-0.05-1.46-0.16V82.06z M163.25,77.65c1.21,0,2.2-0.79,2.2-2.4c0-1.27-0.81-2-2.14-2c-0.2,0-0.46,0.03-0.67,0.06    v4.34H163.25z"/>
		<path d="M168.96,82.1c0.42-0.16,0.82-0.46,0.82-0.84v-5.24l-0.99-0.42v-0.33c0.7-0.2,1.41-0.29,1.84-0.29h0.5l-0.08,0.84v5.89    l0.87,0.23v0.29c-0.53,0.19-1.01,0.26-1.8,0.26c-0.36,0-0.81-0.03-1.16-0.14V82.1z M169.61,72.67c0-0.48,0.34-0.92,0.88-0.92    c0.43,0,0.81,0.33,0.81,0.84c0,0.54-0.37,0.96-0.87,0.96C169.97,73.55,169.61,73.18,169.61,72.67z"/>
		<path d="M174.03,76.02l-0.99-0.42v-0.33c0.71-0.2,1.41-0.29,1.86-0.29h0.5l-0.09,0.87v6.96c0,2.54-0.76,3.33-1.75,3.33    c-0.34,0-0.68-0.12-0.87-0.37v-0.25c0.68,0,1.35-0.78,1.35-2.36V76.02z M173.86,72.67c0-0.48,0.34-0.92,0.88-0.92    c0.43,0,0.81,0.33,0.81,0.84c0,0.54-0.37,0.96-0.87,0.96C174.22,73.55,173.86,73.18,173.86,72.67z"/>
		<path d="M176.81,82.1c0.42-0.16,0.84-0.46,0.84-0.84v-8.99l-1.02-0.42v-0.34c0.71-0.2,1.43-0.28,1.86-0.28h0.53l-0.09,0.87v6.2    l0.85-0.74c0.84-0.71,1.6-1.78,1.6-2.48c0.28-0.09,0.51-0.12,0.82-0.12c0.23,0,0.42,0.05,0.62,0.14c-0.03,0.67-0.7,1.72-2.11,2.73    l-0.54,0.39l2.39,2.9c0.43,0.53,0.82,0.74,1.15,0.74v0.33c-0.34,0.23-0.7,0.33-1.15,0.33c-0.43,0-0.81-0.19-1.1-0.59l-2.53-3.33    v3.13l0.81,0.25v0.29c-0.57,0.19-1.02,0.25-1.75,0.25c-0.36,0-0.81-0.03-1.16-0.14V82.1z"/>
		<path class="st3" d="M61.15,99.66c0.26-0.12,0.46-0.29,0.54-0.59l1.94-8.29l-0.84-0.19v-0.37c0.4-0.11,1.13-0.19,1.6-0.19h0.51    l1.36,7.39h0.02l2.56-7.39h0.39c0.39,0,1.04,0.03,1.49,0.12v0.37l-0.73,0.19l0.36,8.59l0.85,0.23v0.31    c-0.47,0.16-0.82,0.23-1.27,0.23c-0.64,0-1.01-0.05-1.36-0.16v-0.26c0.29-0.14,0.48-0.33,0.48-0.81l-0.09-6.87h-0.02l-2.82,8.14    l-0.47-0.03l-1.52-8.11h-0.02l-1.49,7.3l0.88,0.25v0.31c-0.43,0.17-0.81,0.23-1.29,0.23c-0.37,0-0.76-0.06-1.07-0.16V99.66z"/>
		<path class="st3" d="M72.49,97.34l0.5-3.15l0.08-0.92l-0.93-0.29v-0.29c0.5-0.19,0.99-0.26,1.55-0.26c0.28,0,0.5,0.02,0.7,0.09    l-0.7,4.56c-0.06,0.46-0.12,1.26-0.12,1.66c0,0.51,0.19,0.74,0.62,0.88v0.26c-0.33,0.14-0.7,0.22-1.16,0.22    c-0.5,0-0.74-0.26-0.74-0.71C72.28,98.95,72.42,97.96,72.49,97.34z M73.24,90.18c0-0.51,0.4-0.96,0.87-0.96    c0.4,0,0.71,0.31,0.71,0.74c0,0.53-0.42,0.96-0.87,0.96C73.53,90.92,73.24,90.64,73.24,90.18z"/>
		<path class="st3" d="M76.46,93.28l-0.95-0.29v-0.29c0.5-0.19,0.96-0.26,1.54-0.26c0.2,0,0.42,0.03,0.63,0.11l-0.5,2.37h0.02    c0.71-1.58,1.74-2.51,2.79-2.51c0.68,0,1.22,0.48,1.22,1.43c0,0.5-0.14,1.29-0.23,1.95l-0.28,1.67c-0.05,0.36-0.12,0.96-0.12,1.29    c0,0.51,0.25,0.71,0.73,0.81v0.26c-0.36,0.19-0.76,0.29-1.24,0.29s-0.76-0.26-0.76-0.71c0-0.39,0.11-1.15,0.19-1.64l0.29-1.78    c0.08-0.48,0.15-1.15,0.15-1.57c0-0.7-0.31-0.93-0.68-0.93c-0.87,0-2.11,1.67-2.17,3.88L77,99.96h-1.32L76.46,93.28z"/>
		<path class="st3" d="M82.96,97.34l0.5-3.15l0.08-0.92l-0.93-0.29v-0.29c0.5-0.19,0.99-0.26,1.55-0.26c0.28,0,0.5,0.02,0.7,0.09    l-0.7,4.56c-0.06,0.46-0.12,1.26-0.12,1.66c0,0.51,0.19,0.74,0.62,0.88v0.26c-0.33,0.14-0.7,0.22-1.16,0.22    c-0.5,0-0.74-0.26-0.74-0.71C82.74,98.95,82.88,97.96,82.96,97.34z M83.7,90.18c0-0.51,0.4-0.96,0.87-0.96    c0.4,0,0.71,0.31,0.71,0.74c0,0.53-0.42,0.96-0.87,0.96C83.99,90.92,83.7,90.64,83.7,90.18z"/>
		<path class="st3" d="M85.61,98.63c0.43,0.42,0.95,0.65,1.52,0.65c0.73,0,1.32-0.42,1.32-1.07c0-0.51-0.2-0.85-0.96-1.53l-0.54-0.5    c-0.71-0.65-0.91-1.07-0.91-1.75c0-1.02,0.98-2.05,2.4-2.05c1.13,0,1.69,0.34,1.69,0.84c0,0.28-0.11,0.6-0.28,0.81    c-0.45-0.46-1.1-0.76-1.69-0.76c-0.68,0-1.04,0.37-1.04,0.87c0,0.45,0.19,0.71,0.96,1.41l0.59,0.53c0.74,0.67,0.99,1.12,0.99,1.8    c0,1.22-1.24,2.29-2.87,2.29c-0.98,0-1.41-0.31-1.41-0.88C85.37,99,85.47,98.81,85.61,98.63z"/>
		<path class="st3" d="M91.57,94.47l0.2-0.99c-0.34,0-0.54-0.02-0.87-0.05v-0.2c0.5-0.7,1.27-1.38,2.09-1.86h0.23l-0.26,1.27h0.45    c0.43,0,0.78-0.03,1.19-0.11c0,0.67-0.37,0.96-1.35,0.96h-0.43l-0.26,1.61c-0.12,0.74-0.31,2.03-0.31,2.65    c0,1.02,0.51,1.47,1.19,1.47c0.25,0,0.4-0.03,0.64-0.11v0.28c-0.14,0.37-0.7,0.74-1.43,0.74c-1.02,0-1.57-0.68-1.57-1.91    C91.09,97.28,91.33,95.67,91.57,94.47z"/>
		<path class="st3" d="M98.08,92.36c1.07,0,1.66,0.54,1.66,1.6c0,1.83-1.86,2.95-3.71,2.95c0,1.88,0.5,2.33,1.4,2.33    c0.56,0,1.36-0.33,1.69-0.78c0.06,0.06,0.15,0.2,0.15,0.37c0,0.74-0.99,1.36-2.25,1.36c-1.3,0-2.2-0.85-2.2-2.7    C94.83,94.01,96.6,92.36,98.08,92.36z M98.5,94.24c0-0.73-0.29-1.01-0.74-1.01c-0.68,0-1.66,1.18-1.66,2.96    C97.51,96.19,98.5,95.43,98.5,94.24z"/>
		<path class="st3" d="M101.34,93.28l-0.95-0.29v-0.29c0.5-0.19,0.96-0.26,1.5-0.26c0.2,0,0.45,0.03,0.65,0.11l-0.47,2.25h0.02    l0.82-1.36c0.4-0.67,0.82-0.98,1.3-0.98c0.34,0,0.51,0.22,0.51,0.57c0,0.25-0.06,0.56-0.17,0.81c-0.15-0.05-0.31-0.06-0.48-0.06    c-0.98,0-1.95,1.07-2.09,3.94l-0.12,2.26h-1.29L101.34,93.28z"/>
		<path class="st3" d="M105.24,97.34l0.5-3.15l0.08-0.92l-0.93-0.29v-0.29c0.5-0.19,0.99-0.26,1.55-0.26c0.28,0,0.5,0.02,0.7,0.09    l-0.7,4.56c-0.06,0.46-0.12,1.26-0.12,1.66c0,0.51,0.19,0.74,0.62,0.88v0.26c-0.33,0.14-0.7,0.22-1.16,0.22    c-0.5,0-0.74-0.26-0.74-0.71C105.03,98.95,105.17,97.96,105.24,97.34z M105.99,90.18c0-0.51,0.4-0.96,0.87-0.96    c0.4,0,0.71,0.31,0.71,0.74c0,0.53-0.42,0.96-0.87,0.96C106.28,90.92,105.99,90.64,105.99,90.18z"/>
		<path class="st3" d="M111.49,92.36c1.07,0,1.66,0.54,1.66,1.6c0,1.83-1.86,2.95-3.71,2.95c0,1.88,0.5,2.33,1.39,2.33    c0.56,0,1.36-0.33,1.69-0.78c0.06,0.06,0.15,0.2,0.15,0.37c0,0.74-0.99,1.36-2.25,1.36c-1.3,0-2.2-0.85-2.2-2.7    C108.24,94.01,110,92.36,111.49,92.36z M111.91,94.24c0-0.73-0.29-1.01-0.74-1.01c-0.68,0-1.66,1.18-1.66,2.96    C110.92,96.19,111.91,95.43,111.91,94.24z"/>
		<path class="st3" d="M116.64,93.25l-0.67-0.26v-0.33c0.48-0.17,0.84-0.23,1.27-0.23c0.22,0,0.43,0.03,0.64,0.09l0.34,6.34h0.02    c1.13-1.4,1.95-3.52,1.95-5.12c0-0.42-0.2-0.67-0.57-0.85v-0.25c0.26-0.14,0.57-0.23,0.96-0.23c0.5,0,0.84,0.26,0.84,0.93    c0,1.6-1.5,4.87-3.01,6.31c-0.29,0.26-0.54,0.43-0.82,0.57h-0.31L116.64,93.25z"/>
		<path class="st3" d="M121.98,97.45c0-3.19,1.83-5.04,3.94-5.04c0.5,0,1.21,0.11,1.72,0.25l-0.54,2.71    c-0.19,0.81-0.34,2.25-0.36,2.91c0,0.99,0.2,1.18,0.74,1.26v0.33c-0.4,0.14-0.9,0.23-1.38,0.23c-0.25,0-0.45-0.05-0.65-0.11    l0.36-2.31h-0.01c-0.6,1.54-1.58,2.5-2.4,2.5C122.67,100.18,121.98,99.23,121.98,97.45z M125.88,95.94l0.43-2.57    c-0.22-0.06-0.57-0.09-0.81-0.09c-1.26,0-2.33,1.32-2.33,3.95c0,1.32,0.4,1.88,0.78,1.88C124.62,99.11,125.52,98.07,125.88,95.94z    "/>
		<path class="st3" d="M129.59,93.28l-0.95-0.29v-0.29c0.5-0.19,0.96-0.26,1.54-0.26c0.2,0,0.42,0.03,0.63,0.11l-0.5,2.37h0.02    c0.71-1.58,1.74-2.51,2.79-2.51c0.68,0,1.22,0.48,1.22,1.43c0,0.5-0.14,1.29-0.23,1.95l-0.28,1.67c-0.05,0.36-0.12,0.96-0.12,1.29    c0,0.51,0.25,0.71,0.73,0.81v0.26c-0.36,0.19-0.76,0.29-1.24,0.29s-0.76-0.26-0.76-0.71c0-0.39,0.11-1.15,0.19-1.64l0.29-1.78    c0.08-0.48,0.15-1.15,0.15-1.57c0-0.7-0.31-0.93-0.68-0.93c-0.87,0-2.11,1.67-2.17,3.88l-0.09,2.62h-1.32L129.59,93.28z"/>
		<path class="st3" d="M137.93,99.66c0.29-0.14,0.56-0.4,0.6-0.84l0.95-8l-0.84-0.25v-0.34c0.9-0.15,1.98-0.25,3.05-0.25    c1.85,0,2.87,0.79,2.87,2.08c0,1.35-0.98,2.43-2.4,2.74v0.02c1.29,0,2.29,0.88,2.29,2.06c0,1.95-1.74,3.21-4.22,3.21    c-1.02,0-1.67-0.03-2.31-0.17V99.66z M140.69,99.26c1.38,0,2.4-0.87,2.4-2.14c0-1.19-0.77-1.84-2.9-1.84l-0.5,3.92    C140.03,99.25,140.37,99.26,140.69,99.26z M143.2,92.24c0-0.95-0.73-1.46-1.75-1.46c-0.28,0-0.45,0-0.74,0.03l-0.45,3.75    C142.07,94.56,143.2,93.67,143.2,92.24z"/>
		<path class="st3" d="M146.12,97.34l0.5-3.15l0.08-0.92l-0.93-0.29v-0.29c0.5-0.19,0.99-0.26,1.55-0.26c0.28,0,0.5,0.02,0.7,0.09    l-0.7,4.56c-0.06,0.46-0.12,1.26-0.12,1.66c0,0.51,0.19,0.74,0.62,0.88v0.26c-0.33,0.14-0.7,0.22-1.16,0.22    c-0.5,0-0.74-0.26-0.74-0.71C145.9,98.95,146.04,97.96,146.12,97.34z M146.86,90.18c0-0.51,0.4-0.96,0.87-0.96    c0.4,0,0.71,0.31,0.71,0.74c0,0.53-0.42,0.96-0.87,0.96C147.15,90.92,146.86,90.64,146.86,90.18z"/>
		<path class="st3" d="M150.08,93.28l-0.95-0.29v-0.29c0.5-0.19,0.96-0.26,1.54-0.26c0.2,0,0.42,0.03,0.63,0.11l-0.5,2.37h0.02    c0.71-1.58,1.74-2.51,2.79-2.51c0.68,0,1.22,0.48,1.22,1.43c0,0.5-0.14,1.29-0.23,1.95l-0.28,1.67c-0.05,0.36-0.12,0.96-0.12,1.29    c0,0.51,0.25,0.71,0.73,0.81v0.26c-0.36,0.19-0.76,0.29-1.24,0.29s-0.76-0.26-0.76-0.71c0-0.39,0.11-1.15,0.19-1.64l0.29-1.78    c0.08-0.48,0.15-1.15,0.15-1.57c0-0.7-0.31-0.93-0.68-0.93c-0.87,0-2.11,1.67-2.17,3.88l-0.09,2.62h-1.32L150.08,93.28z"/>
		<path class="st3" d="M157.12,93.28l-0.95-0.29v-0.29c0.5-0.19,0.96-0.26,1.54-0.26c0.2,0,0.42,0.03,0.63,0.11l-0.5,2.37h0.02    c0.71-1.58,1.74-2.51,2.79-2.51c0.68,0,1.22,0.48,1.22,1.43c0,0.5-0.14,1.29-0.23,1.95l-0.28,1.67c-0.05,0.36-0.12,0.96-0.12,1.29    c0,0.51,0.25,0.71,0.73,0.81v0.26c-0.36,0.19-0.76,0.29-1.24,0.29s-0.76-0.26-0.76-0.71c0-0.39,0.11-1.15,0.19-1.64l0.29-1.78    c0.08-0.48,0.15-1.15,0.15-1.57c0-0.7-0.31-0.93-0.68-0.93c-0.87,0-2.11,1.67-2.17,3.88l-0.09,2.62h-1.32L157.12,93.28z"/>
		<path class="st3" d="M166.44,92.36c1.07,0,1.66,0.54,1.66,1.6c0,1.83-1.86,2.95-3.71,2.95c0,1.88,0.5,2.33,1.4,2.33    c0.56,0,1.36-0.33,1.69-0.78c0.06,0.06,0.15,0.2,0.15,0.37c0,0.74-0.99,1.36-2.25,1.36c-1.3,0-2.2-0.85-2.2-2.7    C163.18,94.01,164.95,92.36,166.44,92.36z M166.86,94.24c0-0.73-0.29-1.01-0.74-1.01c-0.68,0-1.66,1.18-1.66,2.96    C165.86,96.19,166.86,95.43,166.86,94.24z"/>
		<path class="st3" d="M169.71,93.28l-0.95-0.29v-0.29c0.5-0.19,0.96-0.26,1.54-0.26c0.2,0,0.42,0.03,0.63,0.11l-0.5,2.37h0.02    c0.71-1.58,1.74-2.51,2.79-2.51c0.68,0,1.22,0.48,1.22,1.43c0,0.5-0.14,1.29-0.23,1.95l-0.28,1.67c-0.05,0.36-0.12,0.96-0.12,1.29    c0,0.51,0.25,0.71,0.73,0.81v0.26c-0.36,0.19-0.76,0.29-1.24,0.29s-0.76-0.26-0.76-0.71c0-0.39,0.11-1.15,0.19-1.64l0.29-1.78    c0.08-0.48,0.15-1.15,0.15-1.57c0-0.7-0.31-0.93-0.68-0.93c-0.87,0-2.11,1.67-2.17,3.88l-0.09,2.62h-1.32L169.71,93.28z"/>
		<path class="st3" d="M176.2,97.34l1.08-7.69l-0.98-0.29v-0.29c0.5-0.17,0.96-0.25,1.55-0.25c0.26,0,0.53,0.03,0.71,0.09    l-1.16,8.12c-0.08,0.5-0.12,1.24-0.12,1.71c0,0.51,0.25,0.74,0.7,0.88v0.26c-0.33,0.14-0.73,0.22-1.19,0.22    c-0.51,0-0.78-0.26-0.78-0.73C176.01,98.94,176.12,97.93,176.2,97.34z"/>
		<path class="st3" d="M179.18,97.45c0-3.19,1.83-5.04,3.94-5.04c0.5,0,1.21,0.11,1.72,0.25l-0.54,2.71    c-0.19,0.81-0.34,2.25-0.36,2.91c0,0.99,0.2,1.18,0.74,1.26v0.33c-0.4,0.14-0.9,0.23-1.38,0.23c-0.25,0-0.45-0.05-0.65-0.11    l0.36-2.31h-0.01c-0.6,1.54-1.58,2.5-2.4,2.5C179.86,100.18,179.18,99.23,179.18,97.45z M183.07,95.94l0.43-2.57    c-0.22-0.06-0.57-0.09-0.81-0.09c-1.26,0-2.33,1.32-2.33,3.95c0,1.32,0.4,1.88,0.78,1.88C181.81,99.11,182.71,98.07,183.07,95.94z    "/>
		<path class="st3" d="M186.79,93.28l-0.95-0.29v-0.29c0.5-0.19,0.96-0.26,1.54-0.26c0.2,0,0.42,0.03,0.63,0.11l-0.5,2.37h0.02    c0.71-1.58,1.74-2.51,2.79-2.51c0.68,0,1.22,0.48,1.22,1.43c0,0.5-0.14,1.29-0.23,1.95l-0.28,1.67c-0.05,0.36-0.12,0.96-0.12,1.29    c0,0.51,0.25,0.71,0.73,0.81v0.26c-0.36,0.19-0.76,0.29-1.24,0.29s-0.76-0.26-0.76-0.71c0-0.39,0.11-1.15,0.19-1.64l0.29-1.78    c0.08-0.48,0.15-1.15,0.15-1.57c0-0.7-0.31-0.93-0.68-0.93c-0.87,0-2.11,1.67-2.17,3.88l-0.09,2.62h-1.32L186.79,93.28z"/>
		<path class="st3" d="M192.83,97.45c0-3.12,1.78-5.04,3.86-5.04c0.19,0,0.42,0.02,0.59,0.03l0.45-2.79l-1.02-0.29v-0.29    c0.48-0.17,0.98-0.25,1.64-0.25c0.26,0,0.51,0.03,0.71,0.09l-1.13,6.42c-0.11,0.65-0.34,2.37-0.34,2.96    c0,1.01,0.22,1.18,0.74,1.26v0.33c-0.48,0.15-0.87,0.23-1.38,0.23c-0.26,0-0.46-0.05-0.65-0.11l0.39-2.34h-0.02    c-0.57,1.44-1.55,2.53-2.43,2.53C193.55,100.18,192.83,99.26,192.83,97.45z M196.72,95.93l0.43-2.57c-0.2-0.05-0.5-0.08-0.74-0.08    c-1.29,0-2.39,1.21-2.39,3.95c0,1.29,0.37,1.88,0.77,1.88C195.42,99.11,196.4,98.1,196.72,95.93z"/>
		<path class="st3" d="M199.14,98.63c0.43,0.42,0.95,0.65,1.52,0.65c0.73,0,1.32-0.42,1.32-1.07c0-0.51-0.2-0.85-0.96-1.53    l-0.54-0.5c-0.71-0.65-0.91-1.07-0.91-1.75c0-1.02,0.98-2.05,2.4-2.05c1.13,0,1.69,0.34,1.69,0.84c0,0.28-0.11,0.6-0.28,0.81    c-0.45-0.46-1.1-0.76-1.69-0.76c-0.68,0-1.04,0.37-1.04,0.87c0,0.45,0.19,0.71,0.96,1.41l0.59,0.53c0.74,0.67,0.99,1.12,0.99,1.8    c0,1.22-1.24,2.29-2.87,2.29c-0.98,0-1.41-0.31-1.41-0.88C198.91,99,199,98.81,199.14,98.63z"/>
		<path class="st3" d="M207.57,92.36c1.07,0,1.66,0.54,1.66,1.6c0,1.83-1.86,2.95-3.71,2.95c0,1.88,0.5,2.33,1.39,2.33    c0.56,0,1.36-0.33,1.69-0.78c0.06,0.06,0.15,0.2,0.15,0.37c0,0.74-0.99,1.36-2.25,1.36c-1.3,0-2.2-0.85-2.2-2.7    C204.32,94.01,206.08,92.36,207.57,92.36z M207.99,94.24c0-0.73-0.29-1.01-0.74-1.01c-0.68,0-1.66,1.18-1.66,2.96    C207,96.19,207.99,95.43,207.99,94.24z"/>
		<path class="st3" d="M211.82,99.63l5.13-8.71h-2.28c-0.67,0-1.04,0.28-1.44,1.07l-0.11,0.22h-0.48l0.33-2.11h5.6v0.33l-5.1,8.71    h2.6c0.74,0,1.12-0.29,1.41-1.01l0.12-0.29h0.53l-0.36,2.12h-5.95V99.63z"/>
		<path class="st3" d="M218.93,97.45c0-3.19,1.83-5.04,3.94-5.04c0.5,0,1.21,0.11,1.72,0.25l-0.54,2.71    c-0.19,0.81-0.34,2.25-0.36,2.91c0,0.99,0.2,1.18,0.74,1.26v0.33c-0.4,0.14-0.9,0.23-1.38,0.23c-0.25,0-0.45-0.05-0.65-0.11    l0.36-2.31h-0.02c-0.61,1.54-1.58,2.5-2.4,2.5C219.62,100.18,218.93,99.23,218.93,97.45z M222.83,95.94l0.43-2.57    c-0.22-0.06-0.57-0.09-0.81-0.09c-1.26,0-2.33,1.32-2.33,3.95c0,1.32,0.4,1.88,0.77,1.88C221.57,99.11,222.47,98.07,222.83,95.94z    "/>
		<path class="st3" d="M226.25,95.91l0.64-6.26l-0.96-0.29v-0.29c0.48-0.17,0.95-0.25,1.58-0.25c0.25,0,0.5,0.03,0.7,0.09l-0.9,6.81    h0.02l0.87-0.68c0.65-0.51,1.46-1.75,1.69-2.71c0.76,0,1.04,0.2,1.04,0.51c0,0.59-0.98,1.74-2.12,2.51l-0.67,0.46l1.95,2.99    c0.26,0.39,0.56,0.64,1.01,0.84v0.26c-0.29,0.17-0.54,0.23-0.96,0.23c-0.46,0-0.88-0.23-1.29-0.98l-1.6-2.95h-0.02l-0.26,3.75    h-1.33L226.25,95.91z"/>
		<path class="st3" d="M234.7,92.36c1.07,0,1.66,0.54,1.66,1.6c0,1.83-1.86,2.95-3.71,2.95c0,1.88,0.5,2.33,1.4,2.33    c0.56,0,1.36-0.33,1.69-0.78c0.06,0.06,0.15,0.2,0.15,0.37c0,0.74-0.99,1.36-2.25,1.36c-1.3,0-2.2-0.85-2.2-2.7    C231.44,94.01,233.21,92.36,234.7,92.36z M235.12,94.24c0-0.73-0.29-1.01-0.74-1.01c-0.68,0-1.66,1.18-1.66,2.96    C234.12,96.19,235.12,95.43,235.12,94.24z"/>
		<path class="st3" d="M237.97,93.28l-0.95-0.29v-0.29c0.5-0.19,0.96-0.26,1.54-0.26c0.2,0,0.42,0.03,0.63,0.11l-0.5,2.37h0.02    c0.71-1.58,1.74-2.51,2.79-2.51c0.68,0,1.22,0.48,1.22,1.43c0,0.5-0.14,1.29-0.23,1.95l-0.28,1.67c-0.05,0.36-0.12,0.96-0.12,1.29    c0,0.51,0.25,0.71,0.73,0.81v0.26c-0.36,0.19-0.76,0.29-1.24,0.29s-0.76-0.26-0.76-0.71c0-0.39,0.11-1.15,0.19-1.64l0.29-1.78    c0.08-0.48,0.15-1.15,0.15-1.57c0-0.7-0.31-0.93-0.68-0.93c-0.87,0-2.11,1.67-2.17,3.88l-0.09,2.62h-1.32L237.97,93.28z"/>
		<path class="st3" d="M249.76,92.36c1.07,0,1.66,0.54,1.66,1.6c0,1.83-1.86,2.95-3.71,2.95c0,1.88,0.5,2.33,1.39,2.33    c0.56,0,1.36-0.33,1.69-0.78c0.06,0.06,0.15,0.2,0.15,0.37c0,0.74-0.99,1.36-2.25,1.36c-1.3,0-2.2-0.85-2.2-2.7    C246.51,94.01,248.27,92.36,249.76,92.36z M250.18,94.24c0-0.73-0.29-1.01-0.74-1.01c-0.68,0-1.66,1.18-1.66,2.96    C249.19,96.19,250.18,95.43,250.18,94.24z"/>
		<path class="st3" d="M253.03,93.28l-0.95-0.29v-0.29c0.5-0.19,0.96-0.26,1.54-0.26c0.2,0,0.42,0.03,0.64,0.11l-0.5,2.37h0.01    c0.71-1.58,1.74-2.51,2.79-2.51c0.68,0,1.22,0.48,1.22,1.43c0,0.5-0.14,1.29-0.23,1.95l-0.28,1.67c-0.05,0.36-0.12,0.96-0.12,1.29    c0,0.51,0.25,0.71,0.73,0.81v0.26c-0.36,0.19-0.76,0.29-1.24,0.29s-0.76-0.26-0.76-0.71c0-0.39,0.11-1.15,0.19-1.64l0.29-1.78    c0.08-0.48,0.16-1.15,0.16-1.57c0-0.7-0.31-0.93-0.68-0.93c-0.87,0-2.11,1.67-2.17,3.88l-0.09,2.62h-1.32L253.03,93.28z"/>
		<path class="st3" d="M61.52,117.26c0.28-0.11,0.56-0.36,0.59-0.68l0.95-8.19l-0.87-0.25v-0.31c0.47-0.17,0.87-0.23,1.43-0.23    c0.45,0,0.88,0.05,1.21,0.16v0.26c-0.29,0.11-0.54,0.34-0.57,0.67l-0.96,8.2l0.87,0.25v0.31c-0.45,0.16-0.85,0.23-1.41,0.23    c-0.45,0-0.9-0.06-1.22-0.16V117.26z M63.97,112.55l0.02-0.08l1.4-1.24c1.18-1.05,1.74-1.98,1.74-2.6c0-0.31-0.14-0.48-0.56-0.6    v-0.23c0.36-0.16,0.68-0.23,1.07-0.23c0.45,0,0.76,0.25,0.76,0.68c0,0.92-0.67,2-2.05,3.18l-1.13,0.96l1.49,2.7    c0.78,1.4,1.44,1.91,1.98,1.98v0.33c-0.37,0.26-0.65,0.34-1.13,0.34c-0.59,0-1.08-0.36-1.95-2.05L63.97,112.55z"/>
		<path class="st3" d="M72.59,109.95c1.26,0,2.15,0.82,2.15,2.59c0,3.29-1.8,5.22-3.33,5.22c-1.21,0-2.22-0.93-2.22-2.76    C69.19,111.73,70.88,109.95,72.59,109.95z M73.47,112.85c0-1.38-0.51-2-1.19-2c-0.84,0-1.86,1.43-1.86,3.61    c0,1.77,0.59,2.43,1.27,2.43C72.43,116.89,73.47,115.61,73.47,112.85z"/>
		<path class="st3" d="M76.76,110.88l-0.95-0.29v-0.29c0.5-0.19,0.96-0.26,1.54-0.26c0.2,0,0.42,0.03,0.63,0.11l-0.5,2.37h0.02    c0.71-1.58,1.74-2.51,2.79-2.51c0.68,0,1.22,0.48,1.22,1.43c0,0.5-0.14,1.29-0.23,1.95L81,115.05c-0.05,0.36-0.12,0.96-0.12,1.29    c0,0.51,0.25,0.71,0.73,0.81v0.26c-0.36,0.19-0.76,0.29-1.24,0.29s-0.76-0.26-0.76-0.71c0-0.39,0.11-1.15,0.19-1.64l0.29-1.78    c0.08-0.48,0.15-1.15,0.15-1.57c0-0.7-0.31-0.93-0.68-0.93c-0.87,0-2.11,1.67-2.17,3.88l-0.09,2.62h-1.32L76.76,110.88z"/>
		<path class="st3" d="M83.25,114.94l0.5-3.15l0.08-0.91l-0.93-0.29v-0.29c0.5-0.19,0.99-0.26,1.55-0.26c0.28,0,0.5,0.02,0.7,0.09    l-0.7,4.56c-0.06,0.47-0.12,1.26-0.12,1.66c0,0.51,0.19,0.74,0.62,0.88v0.26c-0.33,0.14-0.7,0.22-1.16,0.22    c-0.5,0-0.74-0.26-0.74-0.71C83.03,116.55,83.17,115.56,83.25,114.94z M83.99,107.78c0-0.51,0.4-0.96,0.87-0.96    c0.4,0,0.71,0.31,0.71,0.74c0,0.53-0.42,0.96-0.87,0.96C84.29,108.52,83.99,108.24,83.99,107.78z"/>
		<path class="st3" d="M87.22,110.88l-0.95-0.29v-0.29c0.5-0.19,0.96-0.26,1.54-0.26c0.2,0,0.42,0.03,0.64,0.11l-0.5,2.37h0.01    c0.71-1.58,1.74-2.51,2.79-2.51c0.68,0,1.22,0.48,1.22,1.43c0,0.5-0.14,1.29-0.23,1.95l-0.28,1.67c-0.05,0.36-0.12,0.96-0.12,1.29    c0,0.51,0.25,0.71,0.73,0.81v0.26c-0.36,0.19-0.76,0.29-1.24,0.29s-0.76-0.26-0.76-0.71c0-0.39,0.11-1.15,0.19-1.64l0.29-1.78    c0.08-0.48,0.16-1.15,0.16-1.57c0-0.7-0.31-0.93-0.68-0.93c-0.87,0-2.11,1.67-2.17,3.88l-0.09,2.62h-1.32L87.22,110.88z"/>
		<path class="st3" d="M93.96,113.51l0.64-6.26l-0.96-0.29v-0.29c0.48-0.17,0.95-0.25,1.58-0.25c0.25,0,0.5,0.03,0.7,0.09l-0.9,6.81    h0.02l0.87-0.68c0.65-0.51,1.46-1.75,1.69-2.71c0.76,0,1.04,0.2,1.04,0.51c0,0.59-0.98,1.74-2.12,2.51l-0.67,0.47l1.95,2.99    c0.26,0.39,0.56,0.64,1.01,0.84v0.26c-0.29,0.17-0.54,0.23-0.96,0.23c-0.46,0-0.88-0.23-1.29-0.98l-1.6-2.95h-0.02l-0.26,3.75    h-1.33L93.96,113.51z"/>
		<path class="st3" d="M100.11,110.88l-0.95-0.29v-0.29c0.5-0.19,0.96-0.26,1.5-0.26c0.2,0,0.45,0.03,0.65,0.11l-0.47,2.25h0.02    l0.82-1.36c0.4-0.67,0.82-0.98,1.3-0.98c0.34,0,0.51,0.22,0.51,0.57c0,0.25-0.06,0.56-0.17,0.81c-0.15-0.05-0.31-0.06-0.48-0.06    c-0.98,0-1.95,1.07-2.09,3.94l-0.12,2.26h-1.29L100.11,110.88z"/>
		<path class="st3" d="M104.02,114.94l0.5-3.15l0.08-0.91l-0.93-0.29v-0.29c0.5-0.19,0.99-0.26,1.55-0.26c0.28,0,0.5,0.02,0.7,0.09    l-0.7,4.56c-0.06,0.47-0.12,1.26-0.12,1.66c0,0.51,0.19,0.74,0.62,0.88v0.26c-0.33,0.14-0.7,0.22-1.16,0.22    c-0.5,0-0.74-0.26-0.74-0.71C103.8,116.55,103.94,115.56,104.02,114.94z M104.76,107.78c0-0.51,0.4-0.96,0.87-0.96    c0.4,0,0.71,0.31,0.71,0.74c0,0.53-0.42,0.96-0.87,0.96C105.06,108.52,104.76,108.24,104.76,107.78z"/>
		<path class="st3" d="M107.86,111.81l0.05-0.93l-0.95-0.29v-0.29c0.5-0.19,1.01-0.26,1.53-0.26c0.25,0,0.5,0.03,0.7,0.09    l-0.99,8.37c-0.26,2.11-1.13,2.9-2.16,2.9c-0.4,0-0.87-0.17-1.07-0.42v-0.28c1.02,0,1.84-0.59,2.03-2.14L107.86,111.81z     M108.05,107.78c0-0.51,0.4-0.96,0.87-0.96c0.39,0,0.71,0.31,0.71,0.74c0,0.53-0.42,0.96-0.87,0.96    C108.34,108.52,108.05,108.24,108.05,107.78z"/>
		<path class="st3" d="M111.03,113.51l0.64-6.26l-0.96-0.29v-0.29c0.48-0.17,0.95-0.25,1.58-0.25c0.25,0,0.5,0.03,0.7,0.09    l-0.9,6.81h0.02l0.87-0.68c0.65-0.51,1.46-1.75,1.69-2.71c0.76,0,1.04,0.2,1.04,0.51c0,0.59-0.98,1.74-2.12,2.51l-0.67,0.47    l1.95,2.99c0.26,0.39,0.56,0.64,1.01,0.84v0.26c-0.29,0.17-0.54,0.23-0.96,0.23c-0.47,0-0.88-0.23-1.29-0.98l-1.6-2.95H112    l-0.26,3.75h-1.33L111.03,113.51z"/>
		<path class="st3" d="M116.03,116.23c0.43,0.42,0.95,0.65,1.52,0.65c0.73,0,1.32-0.42,1.32-1.07c0-0.51-0.2-0.85-0.96-1.54    l-0.54-0.5c-0.71-0.65-0.91-1.07-0.91-1.75c0-1.02,0.98-2.05,2.4-2.05c1.13,0,1.69,0.34,1.69,0.84c0,0.28-0.11,0.61-0.28,0.81    c-0.45-0.46-1.1-0.76-1.69-0.76c-0.68,0-1.04,0.37-1.04,0.87c0,0.45,0.19,0.71,0.96,1.41l0.59,0.53c0.74,0.67,0.99,1.12,0.99,1.8    c0,1.22-1.24,2.29-2.87,2.29c-0.98,0-1.41-0.31-1.41-0.88C115.8,116.6,115.89,116.41,116.03,116.23z"/>
		<path class="st3" d="M122.17,110.88l-0.95-0.29v-0.29c0.5-0.19,0.96-0.26,1.5-0.26c0.2,0,0.45,0.03,0.65,0.11l-0.47,2.25h0.02    l0.82-1.36c0.4-0.67,0.82-0.98,1.3-0.98c0.34,0,0.51,0.22,0.51,0.57c0,0.25-0.06,0.56-0.17,0.81c-0.15-0.05-0.31-0.06-0.48-0.06    c-0.98,0-1.95,1.07-2.09,3.94l-0.12,2.26h-1.29L122.17,110.88z"/>
		<path class="st3" d="M128.9,109.96c1.07,0,1.66,0.54,1.66,1.6c0,1.83-1.86,2.95-3.71,2.95c0,1.88,0.5,2.33,1.39,2.33    c0.56,0,1.36-0.33,1.69-0.78c0.06,0.06,0.15,0.2,0.15,0.37c0,0.74-0.99,1.36-2.25,1.36c-1.3,0-2.2-0.85-2.2-2.7    C125.64,111.61,127.41,109.96,128.9,109.96z M129.32,111.84c0-0.73-0.29-1.01-0.74-1.01c-0.68,0-1.66,1.18-1.66,2.96    C128.32,113.79,129.32,113.03,129.32,111.84z"/>
		<path class="st3" d="M131.63,114.94l1.08-7.69l-0.98-0.29v-0.29c0.5-0.17,0.96-0.25,1.55-0.25c0.26,0,0.53,0.03,0.71,0.09    l-1.16,8.12c-0.08,0.5-0.12,1.24-0.12,1.71c0,0.51,0.25,0.74,0.7,0.88v0.26c-0.33,0.14-0.73,0.22-1.19,0.22    c-0.51,0-0.78-0.26-0.78-0.73C131.44,116.54,131.55,115.53,131.63,114.94z"/>
		<path class="st3" d="M134.6,115.05c0-3.19,1.83-5.04,3.94-5.04c0.5,0,1.21,0.11,1.72,0.25l-0.54,2.71    c-0.19,0.81-0.34,2.25-0.36,2.92c0,0.99,0.2,1.18,0.74,1.25v0.33c-0.4,0.14-0.9,0.23-1.38,0.23c-0.25,0-0.45-0.05-0.65-0.11    l0.36-2.31h-0.01c-0.6,1.54-1.58,2.5-2.4,2.5C135.28,117.78,134.6,116.83,134.6,115.05z M138.49,113.54l0.43-2.57    c-0.22-0.06-0.57-0.09-0.81-0.09c-1.26,0-2.33,1.32-2.33,3.95c0,1.32,0.4,1.88,0.78,1.88    C137.24,116.71,138.14,115.67,138.49,113.54z"/>
		<path class="st3" d="M142.03,112.07l0.2-0.99c-0.34,0-0.54-0.02-0.87-0.05v-0.2c0.5-0.7,1.27-1.38,2.09-1.86h0.23l-0.26,1.27h0.45    c0.43,0,0.78-0.03,1.19-0.11c0,0.67-0.37,0.96-1.35,0.96h-0.43l-0.26,1.61c-0.12,0.74-0.31,2.03-0.31,2.65    c0,1.02,0.51,1.47,1.19,1.47c0.25,0,0.4-0.03,0.64-0.11V117c-0.14,0.37-0.7,0.74-1.43,0.74c-1.02,0-1.57-0.68-1.57-1.91    C141.54,114.88,141.78,113.27,142.03,112.07z"/>
		<path class="st3" d="M145.71,114.94l0.5-3.15l0.08-0.91l-0.93-0.29v-0.29c0.5-0.19,0.99-0.26,1.55-0.26c0.28,0,0.5,0.02,0.7,0.09    l-0.7,4.56c-0.06,0.47-0.12,1.26-0.12,1.66c0,0.51,0.19,0.74,0.62,0.88v0.26c-0.33,0.14-0.7,0.22-1.16,0.22    c-0.5,0-0.74-0.26-0.74-0.71C145.5,116.55,145.64,115.56,145.71,114.94z M146.46,107.78c0-0.51,0.4-0.96,0.87-0.96    c0.4,0,0.71,0.31,0.71,0.74c0,0.53-0.42,0.96-0.87,0.96C146.75,108.52,146.46,108.24,146.46,107.78z"/>
		<path class="st3" d="M151.96,109.96c1.07,0,1.66,0.54,1.66,1.6c0,1.83-1.86,2.95-3.71,2.95c0,1.88,0.5,2.33,1.4,2.33    c0.56,0,1.36-0.33,1.69-0.78c0.06,0.06,0.15,0.2,0.15,0.37c0,0.74-0.99,1.36-2.25,1.36c-1.3,0-2.2-0.85-2.2-2.7    C148.71,111.61,150.47,109.96,151.96,109.96z M152.38,111.84c0-0.73-0.29-1.01-0.74-1.01c-0.68,0-1.66,1.18-1.66,2.96    C151.39,113.79,152.38,113.03,152.38,111.84z"/>
		<path class="st3" d="M153.91,116.23c0.43,0.42,0.95,0.65,1.52,0.65c0.73,0,1.32-0.42,1.32-1.07c0-0.51-0.2-0.85-0.96-1.54    l-0.54-0.5c-0.71-0.65-0.91-1.07-0.91-1.75c0-1.02,0.98-2.05,2.4-2.05c1.13,0,1.69,0.34,1.69,0.84c0,0.28-0.11,0.61-0.28,0.81    c-0.45-0.46-1.1-0.76-1.69-0.76c-0.68,0-1.04,0.37-1.04,0.87c0,0.45,0.19,0.71,0.96,1.41l0.59,0.53c0.74,0.67,0.99,1.12,0.99,1.8    c0,1.22-1.24,2.29-2.87,2.29c-0.98,0-1.41-0.31-1.41-0.88C153.68,116.6,153.77,116.41,153.91,116.23z"/>
	</g>
	<g>
		<rect class="st0" height="125" width="314"/>
	</g>
</g>
</svg>