<?xml version="1.0" encoding="utf-8"?>
<!-- Generator: Adobe Illustrator 19.1.0, SVG Export Plug-In . SVG Version: 6.00 Build 0)  -->
<svg version="1.1" id="Laag_3" xmlns="http://www.w3.org/2000/svg" xmlns:xlink="http://www.w3.org/1999/xlink" x="0px" y="0px"
	 width="100px" height="200px" viewBox="-247 320.9 100 200" style="enable-background:new -247 320.9 100 200;"
	 xml:space="preserve">
<style type="text/css">
	.st0{fill:#F3F3F3;}
	.st1{fill:#FFFFFF;enable-background:new    ;}
</style>
<path class="st0" d="M-164.1,444.4c-0.5-3.1-2.9-5.5-6-6c-9-1.5-24-1.5-27-1.5c-3,0-18,0-27,1.5c-3.1,0.5-5.5,2.9-6,6
	c-1.5,9-1.5,24-1.5,27c0,3,0,18,1.5,27c0.5,3.1,2.9,5.5,6,6c9,1.5,24,1.5,27,1.5c3,0,18,0,27-1.5c3.1-0.5,5.5-2.9,6-6
	c1.5-9,1.5-24,1.5-27C-162.6,462.4-162.6,453.4-164.1,444.4z M-181.6,473.8l-22.6,16.8c-0.5,0.4-1.2,0.6-1.8,0.6
	c-0.5,0-0.9-0.1-1.4-0.3c-1-0.5-1.7-1.6-1.7-2.7v-33.5c0-1.1,0.6-2.2,1.7-2.7c1-0.5,2.2-0.4,3.2,0.3l22.6,16.8
	c0.8,0.6,1.2,1.5,1.2,2.4S-180.9,473.2-181.6,473.8z"/>
<path class="st1" d="M-164.1,344.4c-0.5-3.1-2.9-5.5-6-6c-9-1.5-24-1.5-27-1.5c-3,0-18,0-27,1.5c-3.1,0.5-5.5,2.9-6,6
	c-1.5,9-1.5,24-1.5,27c0,3,0,18,1.5,27c0.5,3.1,2.9,5.5,6,6c9,1.5,24,1.5,27,1.5c3,0,18,0,27-1.5c3.1-0.5,5.5-2.9,6-6
	c1.5-9,1.5-24,1.5-27C-162.6,362.4-162.6,353.4-164.1,344.4z M-181.6,373.8l-22.6,16.8c-0.5,0.4-1.2,0.6-1.8,0.6
	c-0.5,0-0.9-0.1-1.4-0.3c-1-0.5-1.7-1.6-1.7-2.7v-33.5c0-1.1,0.6-2.2,1.7-2.7c1-0.5,2.2-0.4,3.2,0.3l22.6,16.8
	c0.8,0.6,1.2,1.5,1.2,2.4S-180.9,373.2-181.6,373.8z"/>
</svg>
