<?xml version="1.0" encoding="utf-8"?>
<!-- Generator: Adobe Illustrator 19.1.0, SVG Export Plug-In . SVG Version: 6.00 Build 0)  -->
<svg version="1.1" xmlns="http://www.w3.org/2000/svg" xmlns:xlink="http://www.w3.org/1999/xlink" x="0px" y="0px" width="144px"
	 height="45.1px" viewBox="62 -12.1 144 45.1" style="enable-background:new 62 -12.1 144 45.1;" xml:space="preserve">
<style type="text/css">
	.st0{display:none;}
	.st1{display:inline;fill:none;}
	.st2{display:inline;}
	.st3{fill:none;stroke:#FFFFFF;}
	.st4{fill:#FFFFFF;}
	.st5{fill:#333333;stroke:#FFFFFF;}
	.st6{fill:url(#Ellipse4_1_);}
	.st7{fill:url(#SVGID_1_);}
	.st8{fill:url(#SVGID_2_);}
	.st9{fill:#A8A8B7;}
	.st10{display:none;fill:none;stroke:#B0B0B0;}
	.st11{font-family:'ArialMT';}
	.st12{font-size:10px;}
	.st13{fill:url(#SVGID_3_);}
	.st14{fill:none;}
	.st15{fill:url(#SVGID_4_);}
	.st16{fill:url(#SVGID_5_);}
	.st17{fill:url(#SVGID_6_);}
	.st18{fill:url(#SVGID_7_);}
	.st19{fill:url(#Polygon_1_);}
	.st20{fill:url(#SVGID_8_);}
	.st21{fill:url(#SVGID_9_);}
	.st22{fill:url(#SVGID_10_);}
	.st23{fill:url(#SVGID_11_);}
	.st24{display:inline;fill:url(#SVGID_12_);}
	.st25{fill:#154273;}
	.st26{fill:none;stroke:#154273;stroke-width:1.2;stroke-miterlimit:10;}
	.st27{fill:#154273;stroke:#154273;stroke-width:1.2;stroke-miterlimit:10;}
	.st28{fill:#F3F3F3;}
</style>
<g id="Laag_1" class="st0">
	<path class="st1" d="M291.9-409.9"/>
	<g id="BG" class="st2">
	</g>
	<g id="controls" class="st2">
		<path id="Line" class="st3" d="M165.4,2.5h11"/>
		<path id="Line2" class="st3" d="M165.4-1.5h11"/>
		<path id="Line3" class="st3" d="M165.4,6.5h11"/>
		<path id="Ellipse" class="st4" d="M174.9,6.5c0-0.8,0.4-1.5,1-1.5s1,0.7,1,1.5s-0.4,1.5-1,1.5S174.9,7.3,174.9,6.5z"/>
		<path id="Ellipse2" class="st4" d="M170.9,2.5c0-0.8,0.4-1.5,1-1.5s1,0.7,1,1.5s-0.4,1.5-1,1.5S170.9,3.3,170.9,2.5z"/>
		<path id="Ellipse3" class="st4" d="M174.9-1.5c0-0.8,0.4-1.5,1-1.5s1,0.7,1,1.5s-0.4,1.5-1,1.5S174.9-0.7,174.9-1.5z"/>
	</g>
	<g id="backlight" class="st2">
		<g id="off">
			<rect x="149.9" y="16" class="st5" width="10" height="6"/>
		</g>
		<g id="on">
			
				<radialGradient id="Ellipse4_1_" cx="-297.4363" cy="-820.96" r="0.4995" gradientTransform="matrix(14 0 0 10 4319 8212.5908)" gradientUnits="userSpaceOnUse">
				<stop  offset="0" style="stop-color:#FFFFFF"/>
				<stop  offset="1" style="stop-color:#F2F2F2;stop-opacity:0.2"/>
			</radialGradient>
			<path id="Ellipse4" class="st6" d="M147.9,3c0-2.8,3.1-5,7-5s7,2.2,7,5s-3.1,5-7,5S147.9,5.8,147.9,3z"/>
			<rect x="149.9" y="0" class="st5" width="10" height="6"/>
		</g>
	</g>
	<g id="loop" class="st2">
		<g id="on2">
			
				<linearGradient id="SVGID_1_" gradientUnits="userSpaceOnUse" x1="-292.759" y1="-821.4809" x2="-292.759" y2="-818.9056" gradientTransform="matrix(12 0 0 11.125 3652 9135.9551)">
				<stop  offset="0" style="stop-color:#FFFFFF"/>
				<stop  offset="1" style="stop-color:#C8C8C8"/>
			</linearGradient>
			<path class="st7" d="M140.7-0.8c1.4,0.7,2.4,2.1,2.4,3.8c0,2.3-1.9,4.2-4.2,4.2s-4.2-1.9-4.2-4.2c0-1.7,1-3.1,2.4-3.8l-1.3-1.3
				c-1.7,1.1-2.9,3-2.9,5.1c0,3.3,2.7,6,6,6s6-2.7,6-6c0-2.2-1.2-4.1-2.9-5.1L140.7-0.8z"/>
			
				<linearGradient id="SVGID_2_" gradientUnits="userSpaceOnUse" x1="-246.9217" y1="-822.0419" x2="-246.9217" y2="-819.6544" gradientTransform="matrix(5 0 0 5 1370 4107.1899)">
				<stop  offset="0" style="stop-color:#FFFFFF"/>
				<stop  offset="1" style="stop-color:#C8C8C8"/>
			</linearGradient>
			<path class="st8" d="M137.9-3h-5l5,5V-3z"/>
		</g>
		<g id="off2">
			<path class="st9" d="M140.7,15.2c1.4,0.7,2.4,2.1,2.4,3.8c0,2.3-1.9,4.2-4.2,4.2s-4.2-1.9-4.2-4.2c0-1.7,1-3.1,2.4-3.8l-1.3-1.3
				c-1.7,1.1-2.9,3-2.9,5.1c0,3.3,2.7,6,6,6s6-2.7,6-6c0-2.2-1.2-4.1-2.9-5.1L140.7,15.2z"/>
			<path class="st9" d="M137.9,13h-5l5,5V13z"/>
		</g>
	</g>
	<g id="cc" class="st2">
		<rect x="115.9" y="-3" class="st10" width="14" height="12"/>
		<text transform="matrix(1 0 0 1 115.8916 11.9806)" class="st4 st11 st12">cc</text>
		<path class="st3" d="M121.9,2c-4.7-3.2-4.9,5.9,0,3"/>
		<path class="st3" d="M126.9,2c-4.7-3.2-4.9,5.9,0,3"/>
		
			<linearGradient id="SVGID_3_" gradientUnits="userSpaceOnUse" x1="-297.4363" y1="-821.3633" x2="-297.4363" y2="-820.3633" gradientTransform="matrix(14 0 0 12 4287 9853.3496)">
			<stop  offset="0" style="stop-color:#FFFFFF"/>
			<stop  offset="1" style="stop-color:#C8C8C8"/>
		</linearGradient>
		<path class="st13" d="M116.9-2h12V8h-12V-2z M115.9-3V9h14V-3H115.9z"/>
		<rect x="115.9" y="-3" class="st14" width="14" height="12"/>
	</g>
	<g id="volume" class="st2">
		<g id="no_x25_20sound">
			
				<linearGradient id="SVGID_4_" gradientUnits="userSpaceOnUse" x1="-246.9217" y1="-822.1815" x2="-246.9217" y2="-820.3275" gradientTransform="matrix(5 0 0 6 1321 4931.0703)">
				<stop  offset="0" style="stop-color:#FFFFFF"/>
				<stop  offset="1" style="stop-color:#C8C8C8"/>
			</linearGradient>
			<rect x="83.9" y="0" class="st15" width="5" height="6"/>
			
				<linearGradient id="SVGID_5_" gradientUnits="userSpaceOnUse" x1="-227.2771" y1="-821.3633" x2="-227.2771" y2="-820.3633" gradientTransform="matrix(4 0 0 12 999 9853.3496)">
				<stop  offset="0" style="stop-color:#FFFFFF"/>
				<stop  offset="1" style="stop-color:#C8C8C8"/>
			</linearGradient>
			<path class="st16" d="M87.9,0l4-3V9l-4-2.9V0z"/>
		</g>
		<g id="sound_x25_20bars">
			
				<linearGradient id="SVGID_6_" gradientUnits="userSpaceOnUse" x1="-246.9217" y1="-822.1815" x2="-246.9217" y2="-820.3275" gradientTransform="matrix(5 0 0 6 1321 4947.0703)">
				<stop  offset="0" style="stop-color:#FFFFFF"/>
				<stop  offset="1" style="stop-color:#C8C8C8"/>
			</linearGradient>
			<rect x="83.9" y="16" class="st17" width="5" height="6"/>
			
				<linearGradient id="SVGID_7_" gradientUnits="userSpaceOnUse" x1="-227.2771" y1="-821.3633" x2="-227.2771" y2="-820.3633" gradientTransform="matrix(4 0 0 12 999 9869.3496)">
				<stop  offset="0" style="stop-color:#FFFFFF"/>
				<stop  offset="1" style="stop-color:#C8C8C8"/>
			</linearGradient>
			<path class="st18" d="M87.9,16l4-3v12l-4-2.9V16z"/>
			<path class="st3" d="M93.9,13c0,0,3.1-0.6,3,6s-3,6-3,6"/>
			<path class="st3" d="M92.9,16c0,0,2-0.3,2,3s-2,3-2,3"/>
		</g>
	</g>
	<g id="play" class="st2">
		
			<linearGradient id="Polygon_1_" gradientUnits="userSpaceOnUse" x1="-289.7826" y1="-821.4082" x2="-289.7826" y2="-820.4082" gradientTransform="matrix(11 0 0 11 3263 9033.4697)">
			<stop  offset="0" style="stop-color:#FFFFFF"/>
			<stop  offset="1" style="stop-color:#C8C8C8"/>
		</linearGradient>
		<path id="Polygon" class="st19" d="M80.9,3.5L69.9,9V-2L80.9,3.5z"/>
	</g>
	<g id="pause" class="st2">
		
			<linearGradient id="SVGID_8_" gradientUnits="userSpaceOnUse" x1="-194.5361" y1="-821.3633" x2="-194.5361" y2="-820.3633" gradientTransform="matrix(3 0 0 12 655 9869.3496)">
			<stop  offset="0" style="stop-color:#FFFFFF"/>
			<stop  offset="1" style="stop-color:#C8C8C8"/>
		</linearGradient>
		<rect x="69.9" y="13" class="st20" width="3" height="12"/>
		
			<linearGradient id="SVGID_9_" gradientUnits="userSpaceOnUse" x1="-194.5361" y1="-821.3633" x2="-194.5361" y2="-820.3633" gradientTransform="matrix(3 0 0 12 662 9869.3496)">
			<stop  offset="0" style="stop-color:#FFFFFF"/>
			<stop  offset="1" style="stop-color:#C8C8C8"/>
		</linearGradient>
		<rect x="76.9" y="13" class="st21" width="3" height="12"/>
	</g>
	<g id="stop" class="st2">
		
			<linearGradient id="SVGID_10_" gradientUnits="userSpaceOnUse" x1="-286.2108" y1="-821.46" x2="-286.2108" y2="-820.46" gradientTransform="matrix(10 0 0 10 3049 8212.5908)">
			<stop  offset="0" style="stop-color:#FFFFFF"/>
			<stop  offset="1" style="stop-color:#C8C8C8"/>
		</linearGradient>
		<rect x="181.9" y="-2" class="st22" width="10" height="10"/>
	</g>
	<g id="chooser" class="st2">
		
			<linearGradient id="SVGID_11_" gradientUnits="userSpaceOnUse" x1="-295.6557" y1="-821.322" x2="-295.6557" y2="-820.322" gradientTransform="matrix(13.1648 0 0 13.1648 4095.1401 10808.9297)">
			<stop  offset="0" style="stop-color:#FFFFFF"/>
			<stop  offset="0.9944" style="stop-color:#C8C8C8"/>
		</linearGradient>
		<path class="st23" d="M202.1,1.1c1-0.4,2.2,0.1,2.6,1.1c0.4,1-0.1,2.2-1.1,2.6s-2.2-0.1-2.6-1.1C200.6,2.7,201.1,1.6,202.1,1.1z
			 M200.2-3.6l2.7,2.6l2.7-2.6l0.1,3.8l3.8,0.1L206.9,3l2.6,2.7l-3.8,0.1l-0.1,3.8L202.9,7l-2.7,2.6l-0.1-3.8l-3.8-0.1l2.6-2.7
			l-2.6-2.7l3.8-0.1L200.2-3.6z"/>
	</g>
	
		<linearGradient id="SVGID_12_" gradientUnits="userSpaceOnUse" x1="-288.8953" y1="-852.1846" x2="-288.8953" y2="-852.1846" gradientTransform="matrix(13.1648 0 0 13.1648 4095.1401 10808.9297)">
		<stop  offset="0" style="stop-color:#FFFFFF"/>
		<stop  offset="0.9944" style="stop-color:#C8C8C8"/>
	</linearGradient>
	<path class="st24" d="M291.9-409.9"/>
</g>
<g id="Laag_3">
</g>
<g id="Laag_2">
	<g>
		<g>
			<rect x="92" y="-7" class="st25" width="6" height="2.2"/>
			<rect x="92" y="-7" class="st25" width="2.2" height="6"/>
		</g>
		<g>
			<rect x="104.6" y="-7" class="st25" width="2.2" height="6"/>
			<rect x="100.8" y="-7" class="st25" width="6" height="2.2"/>
		</g>
		<rect x="100.8" y="5.8" class="st25" width="6" height="2.2"/>
		<rect x="104.6" y="1.9" class="st25" width="2.2" height="6"/>
		<rect x="92" y="1.9" class="st25" width="2.2" height="6"/>
		<rect x="92" y="5.7" class="st25" width="6" height="2.2"/>
	</g>
	<g>
		<g>
			<rect x="92.1" y="16.7" class="st25" width="6" height="2.2"/>
			<rect x="95.9" y="12.9" class="st25" width="2.2" height="6"/>
		</g>
		<g>
			<rect x="101" y="12.9" class="st25" width="2.2" height="6"/>
			<rect x="101" y="16.7" class="st25" width="6" height="2.2"/>
		</g>
		<g>
			<rect x="101" y="21.9" class="st25" width="6" height="2.2"/>
			<rect x="101" y="22" class="st25" width="2.2" height="6"/>
		</g>
		<g>
			<rect x="95.9" y="22" class="st25" width="2.2" height="6"/>
			<rect x="92.1" y="21.9" class="st25" width="6" height="2.2"/>
		</g>
	</g>
	<path class="st25" d="M77.5,1.3L69,7.6c-0.2,0.1-0.4,0.2-0.7,0.2c-0.2,0-0.3,0-0.5-0.1c-0.4-0.2-0.6-0.6-0.6-1V-5.8
		c0-0.4,0.2-0.8,0.6-1C68.2-7,68.7-7,69-6.8l8.5,6.3c0.3,0.2,0.5,0.5,0.5,0.9S77.8,1.1,77.5,1.3z"/>
	<g id="pause_1_">
		<rect x="67.1" y="13.1" class="st25" width="3.7" height="14.7"/>
		<rect x="75.6" y="13.1" class="st25" width="3.7" height="14.7"/>
	</g>
	<g>
		<path class="st25" d="M132.9,0.5c0-1.8-1.1-3.3-2.6-4l-1,1.5c1.1,0.3,1.8,1.3,1.8,2.5s-0.8,2.2-1.8,2.5l1,1.5
			C131.8,3.8,132.9,2.2,132.9,0.5z"/>
		<path class="st25" d="M132-6l-1,1.5c1.9,0.9,3.2,2.8,3.2,5s-1.3,4.1-3.2,5l1,1.5c2.3-1.2,3.9-3.7,3.9-6.5
			C135.9-2.3,134.3-4.8,132-6z"/>
		<path class="st25" d="M126.4-5.8l-4.4,2.9h-0.9h-1.4c-2.1,0-2.7,1.6-2.7,3.4c0,1.8,0.6,3.4,2.7,3.4h2.4l4.4,2.9
			c0.5,0.3,1.1,0,1.1-0.6V-5.3C127.5-5.8,126.9-6.2,126.4-5.8z"/>
	</g>
	<g>
		<path class="st25" d="M126.4,14.3l-4.4,2.9h-0.9h-1.4c-2.1,0-2.7,1.6-2.7,3.4c0,1.8,0.6,3.4,2.7,3.4h2.4l4.4,2.9
			c0.5,0.3,1.1,0,1.1-0.6V14.9C127.5,14.3,126.9,14,126.4,14.3z"/>
	</g>
	<rect x="142.4" y="-6.6" class="st26" width="14" height="14"/>
	<rect x="142.5" y="13.5" class="st27" width="13.9" height="13.8"/>
	<g>
		<path class="st25" d="M149.3,2.8v1.1c-0.3,0.1-0.5,0.1-0.7,0.1c-0.2,0-0.4,0-0.7,0c-0.9,0-1.6-0.3-2.2-0.8
			c-0.6-0.5-0.9-1.3-0.9-2.4c0-1.2,0.3-2.1,0.9-2.7c0.6-0.6,1.4-0.9,2.3-0.9c0.2,0,0.4,0,0.6,0s0.4,0.1,0.6,0.1l-0.1,1.1
			c-0.2,0-0.4-0.1-0.6-0.1c-0.2,0-0.3,0-0.6,0c-0.5,0-1,0.2-1.3,0.6c-0.4,0.4-0.6,1-0.6,1.7c0,0.7,0.2,1.3,0.6,1.6
			c0.4,0.4,0.8,0.5,1.3,0.5c0.3,0,0.5,0,0.7,0C148.8,2.8,149,2.8,149.3,2.8z"/>
		<path class="st25" d="M154,2.8v1.1c-0.3,0.1-0.5,0.1-0.7,0.1c-0.2,0-0.4,0-0.7,0c-0.9,0-1.6-0.3-2.2-0.8c-0.6-0.5-0.9-1.3-0.9-2.4
			c0-1.2,0.3-2.1,0.9-2.7c0.6-0.6,1.4-0.9,2.3-0.9c0.2,0,0.4,0,0.6,0s0.4,0.1,0.6,0.1l-0.1,1.1c-0.2,0-0.4-0.1-0.6-0.1
			c-0.2,0-0.3,0-0.6,0c-0.5,0-1,0.2-1.3,0.6c-0.4,0.4-0.6,1-0.6,1.7c0,0.7,0.2,1.3,0.6,1.6c0.4,0.4,0.8,0.5,1.3,0.5
			c0.3,0,0.5,0,0.7,0C153.6,2.8,153.8,2.8,154,2.8z"/>
	</g>
	<g>
		<path class="st28" d="M149.2,22.8v1.1c-0.3,0.1-0.5,0.1-0.7,0.1c-0.2,0-0.4,0-0.7,0c-0.9,0-1.6-0.3-2.2-0.8
			c-0.6-0.5-0.9-1.3-0.9-2.4c0-1.2,0.3-2.1,0.9-2.7c0.6-0.6,1.4-0.9,2.3-0.9c0.2,0,0.4,0,0.6,0s0.4,0.1,0.6,0.1l-0.1,1.1
			c-0.2,0-0.4-0.1-0.6-0.1c-0.2,0-0.3,0-0.6,0c-0.5,0-1,0.2-1.3,0.6c-0.4,0.4-0.6,1-0.6,1.7c0,0.7,0.2,1.3,0.6,1.6
			c0.4,0.4,0.8,0.5,1.3,0.5c0.3,0,0.5,0,0.7,0C148.7,22.8,148.9,22.8,149.2,22.8z"/>
		<path class="st28" d="M153.9,22.8v1.1c-0.3,0.1-0.5,0.1-0.7,0.1c-0.2,0-0.4,0-0.7,0c-0.9,0-1.6-0.3-2.2-0.8
			c-0.6-0.5-0.9-1.3-0.9-2.4c0-1.2,0.3-2.1,0.9-2.7c0.6-0.6,1.4-0.9,2.3-0.9c0.2,0,0.4,0,0.6,0s0.4,0.1,0.6,0.1l-0.1,1.1
			c-0.2,0-0.4-0.1-0.6-0.1c-0.2,0-0.3,0-0.6,0c-0.5,0-1,0.2-1.3,0.6c-0.4,0.4-0.6,1-0.6,1.7c0,0.7,0.2,1.3,0.6,1.6
			c0.4,0.4,0.8,0.5,1.3,0.5c0.3,0,0.5,0,0.7,0C153.4,22.8,153.6,22.8,153.9,22.8z"/>
	</g>
	<rect x="167.5" y="-6.6" class="st26" width="14" height="14"/>
	<g>
		<path class="st25" d="M172.6-3l1.8,6.6h-1.4l-0.3-1.4h-2.1l-0.3,1.4h-1.3l1.8-6.6H172.6z M172.4,1.1l-0.8-3h-0.1l-0.8,3H172.4z"/>
		<path class="st25" d="M176.7,3.6H175V-3h1.8c1.1,0,1.9,0.3,2.4,0.8c0.6,0.5,0.8,1.3,0.8,2.3c0,1.2-0.3,2.1-0.9,2.6
			C178.5,3.3,177.7,3.6,176.7,3.6z M176.2-1.9v4.4h0.6c0.6,0,1.1-0.2,1.4-0.5s0.5-1,0.5-1.8c0-0.7-0.2-1.2-0.6-1.5s-0.9-0.5-1.5-0.5
			H176.2z"/>
	</g>
	<rect x="167.6" y="13.6" class="st27" width="13.9" height="13.8"/>
	<g>
		<path class="st28" d="M172.7,17.2l1.8,6.6h-1.4l-0.3-1.4h-2.1l-0.3,1.4h-1.3l1.8-6.6H172.7z M172.5,21.3l-0.8-3h-0.1l-0.8,3H172.5
			z"/>
		<path class="st28" d="M176.9,23.8h-1.7v-6.6h1.8c1.1,0,1.9,0.3,2.4,0.8c0.6,0.5,0.8,1.3,0.8,2.3c0,1.2-0.3,2.1-0.9,2.6
			C178.7,23.5,177.9,23.8,176.9,23.8z M176.4,18.3v4.4h0.6c0.6,0,1.1-0.2,1.4-0.5s0.5-1,0.5-1.8c0-0.7-0.2-1.2-0.6-1.5
			s-0.9-0.5-1.5-0.5H176.4z"/>
	</g>
</g>
</svg>
